<svg height="350" viewBox="0 0 451 350" width="451" xmlns="http://www.w3.org/2000/svg" xmlns:xlink="http://www.w3.org/1999/xlink"><defs><filter id="a" height="573.7%" width="178.9%" x="-39.5%" y="-236.8%"><feGaussianBlur in="SourceGraphic" stdDeviation="5.53268016"/></filter><filter id="b" height="611.5%" width="179.9%" x="-40%" y="-255.8%"><feGaussianBlur in="SourceGraphic" stdDeviation="3.3196079"/></filter><filter id="c" height="573.7%" width="178.9%" x="-39.5%" y="-236.8%"><feGaussianBlur in="SourceGraphic" stdDeviation="5.53268016"/></filter><filter id="d" height="611.5%" width="179.9%" x="-40%" y="-255.8%"><feGaussianBlur in="SourceGraphic" stdDeviation="3.3196079"/></filter><filter id="e" height="573.7%" width="178.9%" x="-39.5%" y="-236.8%"><feGaussianBlur in="SourceGraphic" stdDeviation="5.53268016"/></filter><filter id="f" height="573.7%" width="178.9%" x="-39.5%" y="-236.8%"><feGaussianBlur in="SourceGraphic" stdDeviation="5.53268016"/></filter><filter id="g" height="573.7%" width="178.9%" x="-39.5%" y="-236.8%"><feGaussianBlur in="SourceGraphic" stdDeviation="5.53268016"/></filter><filter id="h" height="225.4%" width="178.9%" x="-39.5%" y="-62.7%"><feGaussianBlur in="SourceGraphic" stdDeviation="5.53268016"/></filter><linearGradient id="i" x1="82.508623%" x2="15.63019%" y1="26.91235%" y2="81.879715%"><stop offset="0" stop-color="#9864ff"/><stop offset="1" stop-color="#0d12e9"/></linearGradient><linearGradient id="j" x1="95.003133%" x2="3.37845%" y1="10.796039%" y2="95.287455%"><stop offset="0" stop-color="#5ad3f9"/><stop offset="1" stop-color="#219fef"/></linearGradient><linearGradient id="k" x1="95.003133%" x2="3.37845%" y1="10.796039%" y2="95.287455%"><stop offset="0" stop-color="#e2e6e7"/><stop offset="1" stop-color="#b5b5b5"/></linearGradient><linearGradient id="l" x1="95.003133%" x2="3.37845%" y1="10.796039%" y2="95.287455%"><stop offset="0" stop-color="#c9c9c9"/><stop offset=".544262358" stop-color="#aeadad"/><stop offset="1" stop-color="#989696"/></linearGradient><linearGradient id="m" x1="101.712647%" x2="7.384915%" y1="7.515538%" y2="86.039033%"><stop offset="0" stop-color="#f5f5fe"/><stop offset="1" stop-color="#dfdff1"/></linearGradient><linearGradient id="n" x1="98.349947%" x2="3.842331%" y1="30.311643%" y2="92.47181%"><stop offset="0" stop-color="#3ecdbb"/><stop offset="1" stop-color="#32a1be"/></linearGradient><filter id="o" height="132.7%" width="118.3%" x="-9.2%" y="-16.3%"><feOffset dx="0" dy="0" in="SourceAlpha" result="shadowOffsetOuter1"/><feGaussianBlur in="shadowOffsetOuter1" result="shadowBlurOuter1" stdDeviation="2"/><feColorMatrix in="shadowBlurOuter1" type="matrix" values="0 0 0 0 0   0 0 0 0 0.274509804   0 0 0 0 0.607843137  0 0 0 0.1 0"/></filter><linearGradient id="p" x1="101.712647%" x2="7.384915%" y1="7.515538%" y2="86.039033%"><stop offset="0" stop-color="#dee4ff"/><stop offset="1" stop-color="#d2dafe"/></linearGradient><linearGradient id="q" x1="100%" x2="0%" y1="100%" y2="8.832411%"><stop offset="0" stop-color="#dee4ff"/><stop offset="1" stop-color="#c0c9f4"/></linearGradient><path id="r" d="m9.32309135 19.5451756v29.9848057l33.55277955-19.6823023.132099-28.8127452z"/><filter id="s" height="106.2%" width="108.9%" x="-4.5%" y="-3.1%"><feOffset dx="0" dy="0" in="SourceAlpha" result="shadowOffsetOuter1"/><feGaussianBlur in="shadowOffsetOuter1" result="shadowBlurOuter1" stdDeviation=".5"/><feColorMatrix in="shadowBlurOuter1" type="matrix" values="0 0 0 0 0   0 0 0 0 0.274509804   0 0 0 0 0.607843137  0 0 0 0.15 0"/></filter><linearGradient id="t" x1="101.712647%" x2="7.384915%" y1="7.515538%" y2="86.039033%"><stop offset="0" stop-color="#dee4ff"/><stop offset="1" stop-color="#b7c4ff"/></linearGradient><linearGradient id="u" x1="101.712647%" x2="7.384915%" y1="7.515538%" y2="86.039033%"><stop offset="0" stop-color="#dee4ff"/><stop offset="1" stop-color="#aab8fb"/></linearGradient><linearGradient id="v" x1="98.423179%" x2="3.246082%" y1="36.609648%" y2="20.498849%"><stop offset="0" stop-color="#b9c3ef"/><stop offset="1" stop-color="#8a9cd4"/></linearGradient><linearGradient id="w" x1="87.8444%" x2="8.155856%" y1="50%" y2="50%"><stop offset="0" stop-color="#fff"/><stop offset="1" stop-color="#dbeefd"/></linearGradient><radialGradient id="x" cx="50%" cy="50%" gradientTransform="matrix(0 1 -.562224 0 .781112 0)" r="50%"><stop offset="0" stop-color="#3aa4f9"/><stop offset="1" stop-color="#2096f1"/></radialGradient><path id="y" d="m176.957335 32.160456c-2.506499 1.4092471-6.570962 1.4092471-9.077461 0-2.506499-1.409247-2.506499-3.6942737 0-5.1035207 2.506499-1.4092471 6.570962-1.4092471 9.077461 0 2.506499 1.409247 2.506499 3.6942737 0 5.1035207"/><filter id="z" height="681.9%" width="427.2%" x="-163.6%" y="-291%"><feMorphology in="SourceAlpha" operator="dilate" radius="1" result="shadowSpreadOuter1"/><feOffset dx="0" dy="0" in="shadowSpreadOuter1" result="shadowOffsetOuter1"/><feGaussianBlur in="shadowOffsetOuter1" result="shadowBlurOuter1" stdDeviation="6"/><feColorMatrix in="shadowBlurOuter1" type="matrix" values="0 0 0 0 1   0 0 0 0 1   0 0 0 0 1  0 0 0 0.374462183 0"/></filter><path id="A" d="m208.957335 211.160456c-2.506499 1.409247-6.570962 1.409247-9.077461 0s-2.506499-3.694274 0-5.103521 6.570962-1.409247 9.077461 0 2.506499 3.694274 0 5.103521"/><filter id="B" height="681.9%" width="427.2%" x="-163.6%" y="-291%"><feMorphology in="SourceAlpha" operator="dilate" radius="1" result="shadowSpreadOuter1"/><feOffset dx="0" dy="0" in="shadowSpreadOuter1" result="shadowOffsetOuter1"/><feGaussianBlur in="shadowOffsetOuter1" result="shadowBlurOuter1" stdDeviation="6"/><feColorMatrix in="shadowBlurOuter1" type="matrix" values="0 0 0 0 1   0 0 0 0 1   0 0 0 0 1  0 0 0 0.374462183 0"/></filter><path id="C" d="m104.957335 271.160456c-2.506499 1.409247-6.5709621 1.409247-9.0774609 0s-2.5064988-3.694274 0-5.103521 6.5709619-1.409247 9.0774609 0 2.506499 3.694274 0 5.103521"/><filter id="D" height="681.9%" width="427.2%" x="-163.6%" y="-291%"><feMorphology in="SourceAlpha" operator="dilate" radius="1" result="shadowSpreadOuter1"/><feOffset dx="0" dy="0" in="shadowSpreadOuter1" result="shadowOffsetOuter1"/><feGaussianBlur in="shadowOffsetOuter1" result="shadowBlurOuter1" stdDeviation="6"/><feColorMatrix in="shadowBlurOuter1" type="matrix" values="0 0 0 0 1   0 0 0 0 1   0 0 0 0 1  0 0 0 0.374462183 0"/></filter><path id="E" d="m208.957335 331.160456c-2.506499 1.409247-6.570962 1.409247-9.077461 0s-2.506499-3.694274 0-5.103521 6.570962-1.409247 9.077461 0 2.506499 3.694274 0 5.103521"/><filter id="F" height="598.8%" width="380.4%" x="-140.2%" y="-249.4%"><feMorphology in="SourceAlpha" operator="dilate" radius="1" result="shadowSpreadOuter1"/><feOffset dx="0" dy="0" in="shadowSpreadOuter1" result="shadowOffsetOuter1"/><feGaussianBlur in="shadowOffsetOuter1" result="shadowBlurOuter1" stdDeviation="5"/><feColorMatrix in="shadowBlurOuter1" type="matrix" values="0 0 0 0 1   0 0 0 0 1   0 0 0 0 1  0 0 0 0.374462183 0"/></filter></defs><g fill="none" fill-rule="evenodd" transform="translate(1)"><g transform="translate(30)"><g opacity=".1" stroke="#fff" stroke-linecap="square" stroke-width=".779447" transform="translate(93 22)"><path d="m49.071319 134.596682-28.8158032 17.131808v11.233526"/><path d="m258.569996 153.285927-28.815803 17.131808" transform="matrix(-1 0 0 1 488.32419 0)"/><path d="m177.574225 117.464874-28.815803 17.131808 9.60911 5.465005"/><path d="m216.5145 125.252059-28.815804 17.131808 9.60911 5.465005" transform="matrix(-1 0 0 1 404.213196 0)"/><path d="m29.6011817.65709382-28.81580319 17.13180778 9.60910969 5.4650047" transform="matrix(-1 0 0 1 30.38656 0)"/></g><g fill="#091d58" fill-opacity=".4" transform="translate(13.289726 65.50595)"><ellipse cx="250.535952" cy="94.550229" filter="url(#a)" rx="21.027748" ry="3.504233" transform="matrix(.8660254 .5 -.5 .8660254 80.840568 -112.600647)"/><ellipse cx="142.775645" cy="270.376087" filter="url(#b)" rx="12.460888" ry="1.946796" transform="matrix(.8660254 .5 -.5 .8660254 154.316353 -35.164295)"/><ellipse cx="377.204556" cy="175.354348" filter="url(#c)" rx="21.027748" ry="3.504233" transform="matrix(.8660254 .5 -.5 .8660254 138.213002 -165.10925)"/><ellipse cx="270.14906" cy="238.62643" filter="url(#d)" rx="12.460888" ry="1.946796" transform="matrix(.8660254 .5 -.5 .8660254 155.506326 -103.10465)"/><ellipse cx="121.631884" cy="132.239474" filter="url(#e)" rx="21.027748" ry="3.504233" transform="matrix(.8660254 .5 -.5 .8660254 82.41532 -43.099212)"/><ellipse cx="117.083522" cy="13.627574" filter="url(#f)" rx="21.027748" ry="3.504233" transform="matrix(.8660254 -.5 -.5 -.8660254 22.500005 83.97116)"/><ellipse cx="20.248943" cy="71.322082" filter="url(#g)" rx="21.027748" ry="3.504233" transform="matrix(.8660254 -.5 -.5 -.8660254 38.373885 143.213288)"/><ellipse cx="269.068788" cy="116.061086" filter="url(#h)" rx="21.027748" ry="13.238215" transform="matrix(.8660254 -.5 -.5 -.8660254 94.078925 351.107329)"/></g><path d="m114.667481 176.595439-.26662-.084584.142754.012522zm-.123866-.072062 42.511716 3.728872 49.623769 28.871857-105.362874 61.02402 104.081148 59.489576 188.305281-110.020992-138.561192-83.862364v-60.5999644l-81.974285-45.2709952-156.0429995 89.9638156zm42.114044 4.982331-42.511696-3.728871-99.582622-57.934662 158.590272-91.4324001 83.271262 45.9872616v60.6339055l139.78856 84.605213-190.809005 111.483841-106.6616527-60.964513 105.3799267-61.033897z" fill="#fff" fill-opacity=".292204" fill-rule="nonzero"/><g transform="translate(378 200)"><path d="m28.4287546 14.325984c1.3208948.7633419 2.3916627 2.6192884 2.3916627 4.1457848v8.0678733c0 1.0797499-2.29132 2.9517122-3.0725206 2.955092-.7812006.0033797 1.0673179-1.3500169.6808579-1.5733513l-18.2547662-10.5476563-2.28674062 3.2555004-1.90050028 1.2255314-.38624031-7.1233837-1.10055831-.6360245c-1.3208948-.7631544-2.39166272-2.6192884-2.39166272-4.14559718l-1.79653212-7.65083825c.61697944-1.27240401 2.86730004-2.56211775 4.18819484-1.79896334z" fill="#c0c3e1"/><path d="m26.5214758 15.5851885c1.3208948.7633419 2.3916627 2.6192884 2.3916627 4.1457847v8.0678734c0 1.5263088-1.0707679 2.1450826-2.3916627 1.3817407l-18.2547662-10.5476564-2.28674058 3.2555004-2.28674058-5.8978522-1.10055831-.6360245c-1.32089481-.7631544-2.39166272-2.6192884-2.39166272-4.1455972v-8.06787339c0-1.52649631 1.07076791-2.14508264 2.39166272-1.38192824z" fill="#fff"/><path d="m4.62120513 19.9205771 19.54729137-11.54845465c.7114341-.42022051 1.2879652-.08379344 1.2879652.75145526 0 .83524869-.5765311 1.85312409-1.2879652 2.27334459l-19.54729137 11.5484546c-.71125916.4202206-1.28796524.0837935-1.28796524-.7514552s.57670608-1.8531241 1.28796524-2.2733446" fill="url(#i)" opacity=".4" transform="matrix(-1 0 0 1 28.789702 0)"/></g><g transform="translate(139.050764 253.467963)"><path d="m21.3176455 0-21.3176455 12.3921378 21.318434 12.3929318 21.3176455-12.3929318z" fill="#e2e3f2"/><path d="m21.3109569 18.1824477 14.7045769-8.48213114-.0101246 2.61853254-14.6944523 8.4217674z" fill="#fff"/><path d="m6.40902615 18.1824477 14.70457695-8.48213114-.0101246 2.61853254-14.69445235 8.4217674z" fill="#fff" transform="matrix(-1 0 0 1 27.52263 0)"/><path d="m21.317768 1.23925348-14.69468769 8.46796086 14.69523119 8.46850336 14.6946877-8.46850336z" fill="#f9f9fe"/><path d="m21.1110685 24.5250883v43.2938292l21.4778666-12.2090997v-43.2938292z" fill="#fff"/><path d="m30.1364426 56.622864 4.2550502-2.4187839v5.9519361l-4.2550502 2.4187839z" fill="url(#j)" opacity=".7"/><g fill="url(#j)" opacity=".494112" transform="translate(23.450744 17.731155)"><path d="m16.4436297 21.6852892c.1119535-.0635794.2026159-.0126698.2026159.1137981v4.1205711c0 .1264679-.0906624.2804638-.2026159.3440432l-16.14921668 9.1636155c-.11195346.0636947-.20261587.012785-.20261587-.1136828v-4.1205712c0-.1264678.09066241-.2805789.20261587-.3441584z"/><path d="m16.4436297 14.7050043c.1119535-.0635794.2026159-.0126698.2026159.113798v4.1205712c0 .1264678-.0906624.2804637-.2026159.3440432l-16.14921668 9.1636155c-.11195346.0636946-.20261587.012785-.20261587-.1136828v-4.1205712c0-.1264678.09066241-.2805789.20261587-.3441584z"/><path d="m16.4436297 7.7247194c.1119535-.06357946.2026159-.01266982.2026159.11379802v4.12057118c0 .1264678-.0906624.2804637-.2026159.3440432l-16.14921668 9.1636155c-.11195346.0636946-.20261587.012785-.20261587-.1136829v-4.1205711c0-.1264679.09066241-.280579.20261587-.3441584z"/><path d="m16.4436297.74443448c.1119535-.06357946.2026159-.01266982.2026159.11379802v4.12057116c0 .12646784-.0906624.28046375-.2026159.34404321l-16.14921668 9.16361553c-.11195346.0636946-.20261587.012785-.20261587-.1136829v-4.1205711c0-.1264679.09066241-.28057897.20261587-.34415843z"/></g></g><path d="m0 12.545638v43.2938292l21.4778666-12.2090997v-43.2938292z" fill="#fff" transform="matrix(-1 0 0 1 160.161832 265.447413)"/><g transform="translate(88.686532 .467963)"><path d="m26.3608193 0-26.3608193 15.4194682 26.3617944 15.4204561 26.3608194-15.4204561z" fill="#e2e3f2"/><path d="m26.3525484 23.8686131 18.1832791-10.5542687-.0125199 3.2582255-18.1707592 10.4791583z" fill="#fff"/><path d="m7.92522705 23.8686131 18.18327905-10.5542687-.0125198 3.2582255-18.17075925 10.4791583z" fill="#fff" transform="matrix(-1 0 0 1 34.033734 0)"/><path d="m26.3609708 2.78629066-18.17105021 10.53663664 18.17172241 10.5373116 18.1710502-10.5373116z" fill="#f9f9fe"/><path d="m26.1053719 29.9462794v47.7138214l26.5589443-14.8796753v-47.4536818z" fill="#fff"/><path d="m37.2659035 61.7454538 5.261679-3.0096794v7.405961l-5.261679 3.0096794z" fill="url(#k)" opacity=".7"/><g fill="url(#l)" opacity=".494112" transform="translate(28.99855 22.062778)"><path d="m20.3337443 17.0230225c.1384386-.075322.2505493-.0150098.2505493.1348154v4.8815991c0 .1498252-.1121107.3322626-.2505493.4075845l-19.96968119 10.8560431c-.13843859.0754584-.25054925.0151462-.25054925-.134679v-4.8815991c0-.1498252.11211066-.3323991.25054925-.407721z"/><path d="m20.3337443 8.75354921c.1384386-.07532195.2505493-.01500981.2505493.13481537v4.88159912c0 .1498252-.1121107.3322626-.2505493.4075846l-19.96968119 10.856043c-.13843859.0754584-.25054925.0151462-.25054925-.1346789v-4.8815992c0-.1498252.11211066-.332399.25054925-.407721z"/><path d="m20.3337443.48407594c.1384386-.07532195.2505493-.01500981.2505493.13481537v4.88159916c0 .14982518-.1121107.33226259-.2505493.40758454l-19.96968119 10.85604299c-.13843859.0754584-.25054925.0151463-.25054925-.1346789v-4.8815992c0-.1498251.11211066-.332399.25054925-.407721z"/></g></g><path d="m0 15.040316v47.6397332l26.5589444-14.8055871-.329595-47.36174368z" fill="#fff" transform="matrix(-1 0 0 1 114.791904 15.373926)"/><g transform="translate(239.860679 29.984351)"><path d="m43.1736714 0-42.80530026 24.4465752 42.16389416 24.4481414 42.8053002-24.4481414z" fill="#e2e3f2"/><path d="m43.1604425 35.8694021 29.0829161-16.7331142-.0200246 5.165707-29.0628915 16.6140315z" fill="#fff"/><path d="m13.6871975 35.8694021 29.0829161-16.7331142-.0200246 5.165707-29.0628915 16.6140315z" fill="#d9dbef" transform="matrix(-1 0 0 1 56.457312 0)"/><path d="m43.1739136 2.44473583-29.0633568 16.70515967 29.0644319 16.70623 29.0633568-16.70623z" fill="#f2f2f9"/><path d="m42.7651005 22.2410737 17.1927263-10.0173945-.0118378 7.9819578-17.1808885 9.9461049z" fill="#fff"/><path d="m25.5723743 22.2410737 17.1927262-10.0173945-.0118377 7.9819578-17.1808885 9.9461049z" fill="#d9dbef" transform="matrix(-1 0 0 1 68.337474 0)"/><path d="m42.8674236 1.98481009-17.2950493 10.00858561 17.295689 10.0092268 17.2950493-10.0092268z" fill="#fffdfd"/><path d="m42.7651005 48.3818388v100.7082372l42.4792221-24.085487v-100.7082371z" fill="#fff"/><path d="m50.4653507 147.143442 35.2657342-19.995499v2.709617l-35.2657342 19.995499z" fill="#fff"/><path d="m45.9765024 147.143442 4.5395312-2.573892.0108976 2.703438-4.5504288 2.580071z" fill="#dedfee" transform="matrix(-1 0 0 1 96.503434 0)"/><path d="m81.5139067 147.144799 4.213388-2.450189-34.9410324-20.138736-4.5504288 2.580071z" fill="#ededf9" transform="matrix(-1 0 0 1 131.963128 0)"/><path d="m52.1027532 140.624146 28.344396-16.071134-.0049762 2.712439-28.3394198 16.068312z" fill="#fff"/><path d="m50.3443138 140.624146 1.8200199-1.031942-.0071807 2.713688-1.8128392 1.027871z" fill="#dedfee" transform="matrix(-1 0 0 1 102.508648 0)"/><path d="m78.7031535 140.625504 1.7246975-1.002954-28.2153799-16.202379-1.8505445 1.130886z" fill="#ededf9" transform="matrix(-1 0 0 1 130.789778 0)"/><path d="m60.6156105 122.046255 8.4156971-4.771653v11.741675l-8.4156971 4.771653z" fill="url(#i)" opacity=".6"/><g fill="url(#i)" opacity=".3" transform="translate(47.392542 39.569232)"><path d="m .58229414 71.5674113 7.61422419-4.3172099c.22142309-.1254263.40073646-.0249944.40073646.2244949v8.1288519c0 .2494893-.17931337.5532845-.40073646.6787108l-7.61422419 4.3172099c-.22142309.1256536-.40073646.0252216-.40073646-.2242677v-8.1288518c0-.2494893.17931337-.5535118.40073646-.6789381"/><path d="m .58229414 58.2450014 7.61422419-4.3172099c.22142309-.1254263.40073646-.0249944.40073646.2244949v8.1288518c0 .2494893-.17931337.5532846-.40073646.6787109l-7.61422419 4.3172099c-.22142309.1256535-.40073646.0252216-.40073646-.2242677v-8.1288518c0-.2494893.17931337-.5535118.40073646-.6789381"/><path d="m12.8051033 64.6371533 7.6142242-4.3172099c.2214231-.1254263.4007365-.0249944.4007365.2244949v8.1288518c0 .2494893-.1793134.5532846-.4007365.6787109l-7.6142242 4.3172099c-.221423.1256535-.4007364.0252216-.4007364-.2242677v-8.1288518c0-.2494893.1793134-.5535118.4007364-.6789381"/><path d="m12.8051033 51.3147434 7.6142242-4.3172099c.2214231-.1254263.4007365-.0249944.4007365.2244949v8.1288518c0 .2494893-.1793134.5532845-.4007365.6787109l-7.6142242 4.3172099c-.221423.1256535-.4007364.0252216-.4007364-.2242677v-8.1288519c0-.2494892.1793134-.5535117.4007364-.678938"/><path d="m25.0279357 57.7068953 7.6142242-4.3172099c.2214231-.1254264.4007364-.0249944.4007364.2244949v8.1288518c0 .2494893-.1793133.5532845-.4007364.6787109l-7.6142242 4.3172099c-.2214231.1256535-.4007365.0252216-.4007365-.2242677v-8.1288519c0-.2494892.1793134-.5535117.4007365-.678938"/><path d="m25.0279357 44.3844854 7.6142242-4.31721c.2214231-.1254263.4007364-.0249943.4007364.2244949v8.1288519c0 .2494893-.1793133.5532845-.4007364.6787108l-7.6142242 4.3172099c-.2214231.1256536-.4007365.0252216-.4007365-.2242676v-8.1288519c0-.2494893.1793134-.5535117.4007365-.678938"/><path d="m .58229414 44.9225915 7.61422419-4.3172099c.22142309-.1254263.40073646-.0249944.40073646.2244949v8.1288518c0 .2494893-.17931337.5532846-.40073646.6787109l-7.61422419 4.3172099c-.22142309.1256535-.40073646.0252216-.40073646-.2242677v-8.1288519c0-.2494892.17931337-.5535117.40073646-.678938"/><path d="m12.8051033 37.9923335 7.6142242-4.31721c.2214231-.1254263.4007365-.0249943.4007365.224495v8.1288518c0 .2494893-.1793134.5532845-.4007365.6787108l-7.6142242 4.31721c-.221423.1256535-.4007364.0252215-.4007364-.2242677v-8.1288519c0-.2494893.1793134-.5535117.4007364-.678938"/><path d="m25.0279357 31.0620754 7.6142242-4.3172099c.2214231-.1254263.4007364-.0249944.4007364.2244949v8.1288519c0 .2494892-.1793133.5532845-.4007364.6787108l-7.6142242 4.3172099c-.2214231.1256536-.4007365.0252216-.4007365-.2242677v-8.1288518c0-.2494893.1793134-.5535118.4007365-.6789381"/><path d="m .58229414 31.6002043 7.61422419-4.3172099c.22142309-.1254263.40073646-.0249944.40073646.2244949v8.1288518c0 .2494893-.17931337.5532845-.40073646.6787109l-7.61422419 4.3172099c-.22142309.1256535-.40073646.0252216-.40073646-.2242677v-8.1288519c0-.2494892.17931337-.5535117.40073646-.678938"/><path d="m12.8051033 24.6699463 7.6142242-4.31721c.2214231-.1254263.4007365-.0249943.4007365.2244949v8.1288519c0 .2494893-.1793134.5532845-.4007365.6787108l-7.6142242 4.3172099c-.221423.1256536-.4007364.0252216-.4007364-.2242676v-8.1288519c0-.2494893.1793134-.5535117.4007364-.678938"/><path d="m25.0279357 17.7396882 7.6142242-4.3172099c.2214231-.1254263.4007364-.0249944.4007364.2244949v8.1288519c0 .2494892-.1793133.5532845-.4007364.6787108l-7.6142242 4.3172099c-.2214231.1256536-.4007365.0252216-.4007365-.2242677v-8.1288518c0-.2494893.1793134-.5535118.4007365-.6789381"/><path d="m .58229414 18.2778171 7.61422419-4.3172099c.22142309-.1254263.40073646-.0249944.40073646.2244949v8.1288518c0 .2494893-.17931337.5532845-.40073646.6787109l-7.61422419 4.3172099c-.22142309.1256535-.40073646.0252216-.40073646-.2242677v-8.1288519c0-.2494892.17931337-.5535117.40073646-.678938"/><path d="m12.8051033 11.3475591 7.6142242-4.31720997c.2214231-.12542631.4007365-.02499437.4007365.22449492v8.12885185c0 .2494893-.1793134.5532845-.4007365.6787108l-7.6142242 4.3172099c-.221423.1256536-.4007364.0252216-.4007364-.2242676v-8.1288519c0-.2494893.1793134-.5535117.4007364-.678938"/><path d="m25.0279357 4.41730102 7.6142242-4.31720992c.2214231-.12542631.4007364-.02499437.4007364.22449492v8.12885183c0 .24948929-.1793133.55328454-.4007364.67871085l-7.6142242 4.3172099c-.2214231.1256535-.4007365.0252216-.4007365-.2242677v-8.12885181c0-.24948929.1793134-.55351176.4007365-.67893807"/></g></g><g transform="matrix(-1 0 0 1 282.860679 53.467963)"><path d="m0 24.8044099v100.9321101l42.1430505-24.139028v-100.93211061z" fill="url(#m)"/><g fill="url(#i)" opacity=".5" transform="translate(4.590821 15.972213)"><path d="m .57768599 71.7265044 7.55396684-4.326807c.2196708-.1257051.39756512-.0250499.39756512.224994v8.1469221c0 .2500439-.17789432.5545145-.39756512.6802196l-7.55396684 4.326807c-.21967079.1259329-.39756512.0252777-.39756512-.2247662v-8.1469221c0-.2500439.17789433-.5547422.39756512-.6804474"/><path d="m .57768599 58.374479 7.55396684-4.326807c.2196708-.1257051.39756512-.0250499.39756512.224994v8.1469221c0 .2500439-.17789432.5545145-.39756512.6802196l-7.55396684 4.326807c-.21967079.1259329-.39756512.0252777-.39756512-.2247662v-8.1469221c0-.2500439.17789433-.5547422.39756512-.6804474"/><path d="m12.7037665 64.7808406 7.5539668-4.326807c.2196708-.1257052.3975651-.02505.3975651.2249939v8.1469222c0 .2500439-.1778943.5545144-.3975651.6802196l-7.5539668 4.326807c-.2196708.1259328-.3975651.0252776-.3975651-.2247663v-8.1469221c0-.2500439.1778943-.5547422.3975651-.6804473"/><path d="m12.7037665 51.4288152 7.5539668-4.326807c.2196708-.1257052.3975651-.02505.3975651.2249939v8.1469222c0 .2500439-.1778943.5545144-.3975651.6802196l-7.5539668 4.326807c-.2196708.1259328-.3975651.0252776-.3975651-.2247663v-8.1469221c0-.2500439.1778943-.5547422.3975651-.6804473"/><path d="m24.8298699 57.8351767 7.5539669-4.326807c.2196708-.1257051.3975651-.0250499.3975651.224994v8.1469221c0 .2500439-.1778943.5545145-.3975651.6802196l-7.5539669 4.326807c-.2196708.1259329-.3975651.0252777-.3975651-.2247662v-8.1469222c0-.2500439.1778943-.5547422.3975651-.6804473"/><path d="m24.8298699 44.4831513 7.5539669-4.326807c.2196708-.1257051.3975651-.0250499.3975651.224994v8.1469221c0 .2500439-.1778943.5545145-.3975651.6802196l-7.5539669 4.326807c-.2196708.1259329-.3975651.0252777-.3975651-.2247662v-8.1469222c0-.2500439.1778943-.5547422.3975651-.6804473"/><path d="m .57768599 45.0224536 7.55396684-4.326807c.2196708-.1257051.39756512-.0250499.39756512.224994v8.1469221c0 .2500439-.17789432.5545145-.39756512.6802196l-7.55396684 4.326807c-.21967079.1259329-.39756512.0252777-.39756512-.2247662v-8.1469221c0-.2500439.17789433-.5547422.39756512-.6804474"/><path d="m12.7037665 38.0767898 7.5539668-4.326807c.2196708-.1257052.3975651-.02505.3975651.2249939v8.1469221c0 .2500439-.1778943.5545145-.3975651.6802197l-7.5539668 4.326807c-.2196708.1259328-.3975651.0252776-.3975651-.2247663v-8.1469221c0-.2500439.1778943-.5547422.3975651-.6804473"/><path d="m24.8298699 31.1311259 7.5539669-4.326807c.2196708-.1257052.3975651-.02505.3975651.2249939v8.1469222c0 .2500439-.1778943.5545145-.3975651.6802196l-7.5539669 4.326807c-.2196708.1259328-.3975651.0252776-.3975651-.2247663v-8.1469221c0-.2500439.1778943-.5547422.3975651-.6804473"/><path d="m .57768599 31.670451 7.55396684-4.326807c.2196708-.1257051.39756512-.0250499.39756512.224994v8.1469221c0 .2500439-.17789432.5545145-.39756512.6802196l-7.55396684 4.326807c-.21967079.1259328-.39756512.0252777-.39756512-.2247662v-8.1469222c0-.2500439.17789433-.5547422.39756512-.6804473"/><path d="m12.7037665 24.7247871 7.5539668-4.326807c.2196708-.1257051.3975651-.0250499.3975651.224994v8.1469221c0 .2500439-.1778943.5545145-.3975651.6802196l-7.5539668 4.326807c-.2196708.1259329-.3975651.0252777-.3975651-.2247662v-8.1469222c0-.2500439.1778943-.5547422.3975651-.6804473"/><path d="m24.8298699 17.7791232 7.5539669-4.326807c.2196708-.1257051.3975651-.0250499.3975651.224994v8.1469221c0 .2500439-.1778943.5545145-.3975651.6802196l-7.5539669 4.326807c-.2196708.1259329-.3975651.0252777-.3975651-.2247662v-8.1469221c0-.2500439.1778943-.5547422.3975651-.6804474"/><path d="m .57768599 18.3184484 7.55396684-4.3268071c.2196708-.1257051.39756512-.0250499.39756512.224994v8.1469221c0 .2500439-.17789432.5545145-.39756512.6802197l-7.55396684 4.326807c-.21967079.1259328-.39756512.0252776-.39756512-.2247663v-8.1469221c0-.2500439.17789433-.5547422.39756512-.6804473"/><path d="m12.7037665 11.3727845 7.5539668-4.32680702c.2196708-.12570513.3975651-.02504994.3975651.22499396v8.14692216c0 .2500439-.1778943.5545144-.3975651.6802196l-7.5539668 4.326807c-.2196708.1259328-.3975651.0252776-.3975651-.2247663v-8.1469221c0-.2500439.1778943-.5547422.3975651-.6804473"/><path d="m24.8298699 4.42712061 7.5539669-4.32680701c.2196708-.12570513.3975651-.02504993.3975651.22499397v8.14692213c0 .2500439-.1778943.55451448-.3975651.68021961l-7.5539669 4.32680699c-.2196708.1259329-.3975651.0252777-.3975651-.2247662v-8.14692216c0-.2500439.1778943-.5547422.3975651-.68044733"/></g></g><g transform="translate(.860679 55.467963)"><path d="m24.0529051 0-24.04344393 13.6965734 23.68714893 13.6974509 24.0434439-13.6974509z" fill="#e2e3f2"/><path d="m24.0454733 20.0963896 16.3384189-9.3749871-.0112496 2.8941676-16.3271693 9.3082691z" fill="#fff"/><path d="m7.48777252 20.0963896 16.33841888-9.3749871-.0112496 2.8941676-16.32716928 9.3082691z" fill="#d9dbef" transform="matrix(-1 0 0 1 31.313964 0)"/><path d="m24.0530412 1.36970122-16.32743073 9.35932518 16.32803473 9.3599248 16.3274307-9.3599248z" fill="#f9f9fe"/><path d="m23.8233751 27.1066766v56.4233541l23.8642962-13.4942681v-56.4233541z" fill="#fff"/><path d="m33.8515686 70.2982173 4.7278335-2.6733928v6.5784557l-4.7278335 2.6733928z" fill="url(#n)"/><g transform="translate(27.9628 69.435466)"><path d="m2.94828228 11.5790993 16.76403722-9.4654478.0489807 1.57598847-16.81301792 9.49310373z" fill="#fff"/><path d="m .28049135 11.5790993 2.69791257-1.5233174.00647663 1.5999875-2.7043892 1.5269743z" fill="#dedfee" transform="matrix(-1 0 0 1 3.265372 0)"/><path d="m17.2000542 11.5799028 2.5040807-1.4501059-16.59805854-9.54298887-2.67146058 1.52384596z" fill="#ededf9" transform="matrix(-1 0 0 1 20.13875 0)"/></g><g fill="url(#n)" opacity=".6" transform="translate(26.423014 22.169277)"><path d="m .32712558 40.0967537 4.27757601-2.4187839c.12439272-.0702721.22512873-.0140035.22512873.1257767v4.5543155c0 .1397803-.10073601.3099863-.22512873.3802583l-4.27757601 2.4187839c-.12439273.0703993-.22512874.0141308-.22512874-.1256495v-4.5543154c0-.1397803.10073601-.3101136.22512874-.3803856"/><path d="m .32712558 32.6326666 4.27757601-2.4187839c.12439272-.070272.22512873-.0140035.22512873.1257768v4.5543154c0 .1397803-.10073601.3099863-.22512873.3802583l-4.27757601 2.4187839c-.12439273.0703994-.22512874.0141308-.22512874-.1256494v-4.5543155c0-.1397803.10073601-.3101136.22512874-.3803856"/><path d="m7.19374707 36.213969 4.27757603-2.4187839c.1243927-.0702721.2251287-.0140035.2251287.1257767v4.5543155c0 .1397803-.100736.3099863-.2251287.3802583l-4.27757603 2.4187839c-.12439273.0703994-.22512874.0141308-.22512874-.1256494v-4.5543155c0-.1397803.10073601-.3101136.22512874-.3803856"/><path d="m7.19374707 28.7498819 4.27757603-2.4187839c.1243927-.070272.2251287-.0140035.2251287.1257768v4.5543155c0 .1397802-.100736.3099862-.2251287.3802582l-4.27757603 2.418784c-.12439273.0703993-.22512874.0141307-.22512874-.1256495v-4.5543155c0-.1397802.10073601-.3101135.22512874-.3803856"/><path d="m14.0603816 32.3311843 4.277576-2.4187839c.1243927-.0702721.2251287-.0140035.2251287.1257767v4.5543155c0 .1397803-.100736.3099863-.2251287.3802583l-4.277576 2.4187839c-.1243928.0703994-.2251288.0141308-.2251288-.1256494v-4.5543155c0-.1397803.100736-.3101136.2251288-.3803856"/><path d="m14.0603816 24.8670972 4.277576-2.4187839c.1243927-.070272.2251287-.0140035.2251287.1257768v4.5543155c0 .1397802-.100736.3099862-.2251287.3802583l-4.277576 2.4187839c-.1243928.0703993-.2251288.0141308-.2251288-.1256495v-4.5543155c0-.1397802.100736-.3101135.2251288-.3803856"/><path d="m .32712558 25.1685795 4.27757601-2.4187839c.12439272-.070272.22512873-.0140034.22512873.1257768v4.5543155c0 .1397802-.10073601.3099862-.22512873.3802583l-4.27757601 2.4187839c-.12439273.0703993-.22512874.0141308-.22512874-.1256495v-4.5543155c0-.1397802.10073601-.3101135.22512874-.3803856"/><path d="m7.19374707 21.2857949 4.27757603-2.418784c.1243927-.070272.2251287-.0140034.2251287.1257768v4.5543155c0 .1397802-.100736.3099862-.2251287.3802583l-4.27757603 2.4187839c-.12439273.0703993-.22512874.0141308-.22512874-.1256495v-4.5543155c0-.1397802.10073601-.3101135.22512874-.3803855"/><path d="m14.0603816 17.4030102 4.277576-2.4187839c.1243927-.0702721.2251287-.0140035.2251287.1257767v4.5543155c0 .1397803-.100736.3099863-.2251287.3802583l-4.277576 2.4187839c-.1243928.0703993-.2251288.0141308-.2251288-.1256495v-4.5543154c0-.1397803.100736-.3101136.2251288-.3803856"/><path d="m .32712558 17.7045052 4.27757601-2.4187839c.12439272-.070272.22512873-.0140035.22512873.1257768v4.5543155c0 .1397802-.10073601.3099862-.22512873.3802582l-4.27757601 2.4187839c-.12439273.0703994-.22512874.0141308-.22512874-.1256494v-4.5543155c0-.1397802.10073601-.3101136.22512874-.3803856"/><path d="m7.19374707 13.8217205 4.27757603-2.4187839c.1243927-.070272.2251287-.0140035.2251287.1257768v4.5543155c0 .1397802-.100736.3099862-.2251287.3802583l-4.27757603 2.4187839c-.12439273.0703993-.22512874.0141307-.22512874-.1256495v-4.5543155c0-.1397802.10073601-.3101135.22512874-.3803856"/><path d="m14.0603816 9.93893583 4.277576-2.4187839c.1243927-.07027204.2251287-.01400349.2251287.12577676v4.55431551c0 .1397802-.100736.3099862-.2251287.3802583l-4.277576 2.4187839c-.1243928.0703993-.2251288.0141308-.2251288-.1256495v-4.5543155c0-.1397802.100736-.3101135.2251288-.38038557"/><path d="m .32712558 10.2404309 4.27757601-2.41878393c.12439272-.07027203.22512873-.01400348.22512873.12577677v4.55431546c0 .1397803-.10073601.3099863-.22512873.3802583l-4.27757601 2.4187839c-.12439273.0703994-.22512874.0141308-.22512874-.1256494v-4.5543155c0-.1397803.10073601-.3101136.22512874-.3803856"/><path d="m7.19374707 6.35764619 4.27757603-2.41878391c.1243927-.07027203.2251287-.01400348.2251287.12577677v4.55431548c0 .13978025-.100736.30998626-.2251287.38025829l-4.27757603 2.41878388c-.12439273.0703994-.22512874.0141308-.22512874-.1256494v-4.55431551c0-.13978025.10073601-.31011356.22512874-.3803856"/><path d="m14.0603816 2.4748615 4.277576-2.4187839c.1243927-.07027204.2251287-.01400349.2251287.12577676v4.55431548c0 .13978025-.100736.30998626-.2251287.38025829l-4.277576 2.41878391c-.1243928.07039934-.2251288.01413079-.2251288-.12564946v-4.55431548c0-.13978025.100736-.31011356.2251288-.3803856"/></g><g transform="matrix(-1 0 0 1 24.229504 13.263158)"><path d="m0 13.8662315v56.4233541l23.8642962-13.4942681v-56.42335411z" fill="url(#m)"/><g fill="url(#n)" transform="translate(2.599639 8.928832)"><path d="m .32712558 40.0967537 4.27757601-2.4187839c.12439272-.0702721.22512873-.0140035.22512873.1257767v4.5543155c0 .1397803-.10073601.3099863-.22512873.3802583l-4.27757601 2.4187839c-.12439273.0703993-.22512874.0141308-.22512874-.1256495v-4.5543154c0-.1397803.10073601-.3101136.22512874-.3803856"/><path d="m .32712558 32.6326666 4.27757601-2.4187839c.12439272-.070272.22512873-.0140035.22512873.1257768v4.5543154c0 .1397803-.10073601.3099863-.22512873.3802583l-4.27757601 2.4187839c-.12439273.0703994-.22512874.0141308-.22512874-.1256494v-4.5543155c0-.1397803.10073601-.3101136.22512874-.3803856"/><path d="m7.19374707 36.213969 4.27757603-2.4187839c.1243927-.0702721.2251287-.0140035.2251287.1257767v4.5543155c0 .1397803-.100736.3099863-.2251287.3802583l-4.27757603 2.4187839c-.12439273.0703994-.22512874.0141308-.22512874-.1256494v-4.5543155c0-.1397803.10073601-.3101136.22512874-.3803856"/><path d="m7.19374707 28.7498819 4.27757603-2.4187839c.1243927-.070272.2251287-.0140035.2251287.1257768v4.5543155c0 .1397802-.100736.3099862-.2251287.3802582l-4.27757603 2.418784c-.12439273.0703993-.22512874.0141307-.22512874-.1256495v-4.5543155c0-.1397802.10073601-.3101135.22512874-.3803856"/><path d="m14.0603816 32.3311843 4.277576-2.4187839c.1243927-.0702721.2251287-.0140035.2251287.1257767v4.5543155c0 .1397803-.100736.3099863-.2251287.3802583l-4.277576 2.4187839c-.1243928.0703994-.2251288.0141308-.2251288-.1256494v-4.5543155c0-.1397803.100736-.3101136.2251288-.3803856"/><path d="m14.0603816 24.8670972 4.277576-2.4187839c.1243927-.070272.2251287-.0140035.2251287.1257768v4.5543155c0 .1397802-.100736.3099862-.2251287.3802583l-4.277576 2.4187839c-.1243928.0703993-.2251288.0141308-.2251288-.1256495v-4.5543155c0-.1397802.100736-.3101135.2251288-.3803856"/><path d="m .32712558 25.1685795 4.27757601-2.4187839c.12439272-.070272.22512873-.0140034.22512873.1257768v4.5543155c0 .1397802-.10073601.3099862-.22512873.3802583l-4.27757601 2.4187839c-.12439273.0703993-.22512874.0141308-.22512874-.1256495v-4.5543155c0-.1397802.10073601-.3101135.22512874-.3803856"/><path d="m7.19374707 21.2857949 4.27757603-2.418784c.1243927-.070272.2251287-.0140034.2251287.1257768v4.5543155c0 .1397802-.100736.3099862-.2251287.3802583l-4.27757603 2.4187839c-.12439273.0703993-.22512874.0141308-.22512874-.1256495v-4.5543155c0-.1397802.10073601-.3101135.22512874-.3803855"/><path d="m14.0603816 17.4030102 4.277576-2.4187839c.1243927-.0702721.2251287-.0140035.2251287.1257767v4.5543155c0 .1397803-.100736.3099863-.2251287.3802583l-4.277576 2.4187839c-.1243928.0703993-.2251288.0141308-.2251288-.1256495v-4.5543154c0-.1397803.100736-.3101136.2251288-.3803856"/><path d="m .32712558 17.7045052 4.27757601-2.4187839c.12439272-.070272.22512873-.0140035.22512873.1257768v4.5543155c0 .1397802-.10073601.3099862-.22512873.3802582l-4.27757601 2.4187839c-.12439273.0703994-.22512874.0141308-.22512874-.1256494v-4.5543155c0-.1397802.10073601-.3101136.22512874-.3803856"/><path d="m7.19374707 13.8217205 4.27757603-2.4187839c.1243927-.070272.2251287-.0140035.2251287.1257768v4.5543155c0 .1397802-.100736.3099862-.2251287.3802583l-4.27757603 2.4187839c-.12439273.0703993-.22512874.0141307-.22512874-.1256495v-4.5543155c0-.1397802.10073601-.3101135.22512874-.3803856"/><path d="m14.0603816 9.93893583 4.277576-2.4187839c.1243927-.07027204.2251287-.01400349.2251287.12577676v4.55431551c0 .1397802-.100736.3099862-.2251287.3802583l-4.277576 2.4187839c-.1243928.0703993-.2251288.0141308-.2251288-.1256495v-4.5543155c0-.1397802.100736-.3101135.2251288-.38038557"/><path d="m .32712558 10.2404309 4.27757601-2.41878393c.12439272-.07027203.22512873-.01400348.22512873.12577677v4.55431546c0 .1397803-.10073601.3099863-.22512873.3802583l-4.27757601 2.4187839c-.12439273.0703994-.22512874.0141308-.22512874-.1256494v-4.5543155c0-.1397803.10073601-.3101136.22512874-.3803856"/><path d="m7.19374707 6.35764619 4.27757603-2.41878391c.1243927-.07027203.2251287-.01400348.2251287.12577677v4.55431548c0 .13978025-.100736.30998626-.2251287.38025829l-4.27757603 2.41878388c-.12439273.0703994-.22512874.0141308-.22512874-.1256494v-4.55431551c0-.13978025.10073601-.31011356.22512874-.3803856"/><path d="m14.0603816 2.4748615 4.277576-2.4187839c.1243927-.07027204.2251287-.01400349.2251287.12577676v4.55431548c0 .13978025-.100736.30998626-.2251287.38025829l-4.277576 2.41878391c-.1243928.07039934-.2251288.01413079-.2251288-.12564946v-4.55431548c0-.13978025.100736-.31011356.2251288-.3803856"/></g></g></g><g transform="translate(96 132)"><path d="m33.4736744 28.5531944 32.0958182 17.346073-33.4614191 19.3936311-32.1080735-17.0524539z" fill="#000" filter="url(#o)"/><path d="m42.8983015 29.8254406 24.7882147 14.716795-33.461419 19.3936312-24.80047011-14.423176z" fill="url(#m)"/><path d="m43.5586504 33.8319015 11.3807629 6.6764348c.8174583.4795555 1.0913827 1.530993.6118272 2.3484513-.1493138.2545228-.3617383.4662417-.6167564.6147079l-23.0135937 13.3980269c-.5340071.3108876-1.1939214.3106737-1.7277269-.0005601l-11.3955249-6.644129c-.81874-.477364-1.0954798-1.5280639-.6181158-2.3468039.149191-.2558815.3620739-.46879.6179374-.6180118l23.0283557-13.4303327c.535596-.3123642 1.1980393-.3115168 1.7328345.0022166z" fill="#bfc3e2"/><path d="m34.2480907 63.9806098v1.4279536l32.1520335-19.1452224c1.3821617-.5900905 1.1380446-1.7864342 1.1380446-1.7864342z" fill="url(#p)"/><path d="m9.32309135 49.5002784 24.91931845 14.4696084v1.58584l-23.1865035-13.6476772c-1.62304983-.9075574-1.73281495-2.4077712-1.73281495-2.4077712z" fill="url(#q)"/><use fill="#000" filter="url(#s)" xlink:href="#r"/><use fill="url(#j)" fill-rule="evenodd" xlink:href="#r"/><path d="m20.3292336 20.0581582v17.2214649l19.2706939-11.304328.0758697-16.54830396z" fill="#fff"/><g fill="url(#i)"><path d="m25.0082763 20.7123894 10.7357067-6.4639821c.3907318-.2352087.7073726-.0469014.7073726.4206099 0 .4675112-.3166408 1.0372436-.7073726 1.2724524l-10.7357067 6.4639821c-.3906357.2352087-.7073726.0469014-.7073726-.4206099 0-.4675112.3167369-1.0372436.7073726-1.2724524" opacity=".4"/><path d="m25.0082763 25.2137405 10.7357067-6.463982c.3907318-.2352088.7073726-.0469015.7073726.4206098 0 .4675112-.3166408 1.0372436-.7073726 1.2724524l-10.7357067 6.4639821c-.3906357.2352087-.7073726.0469014-.7073726-.4206099 0-.4675112.3167369-1.0372436.7073726-1.2724524" opacity=".4"/><path d="m25.0082763 29.7150916 10.7357067-6.463982c.3907318-.2352088.7073726-.0469015.7073726.4206098 0 .4675112-.3166408 1.0372436-.7073726 1.2724524l-10.7357067 6.4639821c-.3906357.2352087-.7073726.0469014-.7073726-.4206098 0-.4675113.3167369-1.0372437.7073726-1.2724525" opacity=".4"/></g><path d="m13.2128263 23.9164592v17.2214648l4.5699745-2.6279549v-17.074708z" fill="#454e7c"/><path d="m43.0646678 1.00834562-1.4700414-.857427-33.32518714 19.47812678 1.11921704.6191841z" fill="url(#t)"/><path d="m8.18148833 19.6485553v27.7442468c.19497765 1.9963615 1.15379796 1.9963615 1.15379796 1.9963615v-29.0943774z" fill="url(#u)"/></g><g transform="translate(267 268)"><path d="m1 6.69367413c-.00036072-.03031305 3.51514266-2.78398931 3.97987883-3.27369625.68017364-.71672009 2.93054377-2.19220525 3.58017733-2.7679341.97216572-.86156855 2.48376414-.9029198 4.18135874.07765149 1.0785418.62286087 2.0820547 1.57194782 2.9199987 2.69028261 1.2635894-2.40375218 4.0270372-2.98114348 7.2323626-1.12952174 4.3996571 2.54088261 7.9660595 8.69515216 7.9660595 13.74588256 0 .3724174-.0194786.7285957-.0569931 1.0678131 1.660738 1.5441609 2.8684163 4.0161174 2.8684163 6.1145739 0 .030313 0 .0602652-.0007215.0902174.0007215.0295913.0007215.0595435.0007215.0891348 0 .9345222-.2490006 1.6584558-.6750873 2.1305675-.7026242.7785202-4.1202562 3.6750071-4.1202562 3.6750071l-21.28877625-16.3891572c-2.15672297-1.2457218-6.58713915-6.12082117-6.58713915-6.12082117z" fill="url(#v)"/><path d="m .00003607 9.14479565c0-2.45752174 1.6560487-3.51414782 3.75722136-2.47917391.15582946-3.11574783 2.47018547-4.32393913 5.30216943-2.68811739 1.07854184.62286087 2.08205474 1.57194782 2.91999874 2.69028261 1.2635893-2.40375218 4.0270372-2.98114348 7.2323626-1.12952174 4.3996571 2.54088261 7.9660595 8.69515218 7.9660595 13.74588258 0 .3724174-.0194787.7285957-.0569932 1.0678131 1.6607381 1.5441608 2.8684164 4.0161174 2.8684164 6.1145739 0 .030313 0 .0602652-.0007215.0902174.0007215.0295913.0007215.0595435.0007215.0891348 0 2.4755652-1.74731 3.4733695-3.9051151 2.226926l-22.17900467-12.8105087c-2.15672298-1.2457217-3.90511506-4.2618695-3.90511506-6.73815647 0-.02959131.00036072-.05918261.00072143-.08841305-.00036071-.03031304-.00072143-.06062608-.00072143-.09093913z" fill="url(#w)"/><g fill="#8598f6"><path d="m13.4327517 15.8276309c.6900504.3987608 1.2495214 1.3640869 1.2495214 2.1561956s-.559471 1.1114783-1.2495214.7127174c-.6900503-.3987609-1.2495214-1.3640869-1.2495214-2.1561956s.5594711-1.1114783 1.2495214-.7127174"/><path d="m18.4309816 18.7145874c.6900503.3987609 1.2495214 1.3640869 1.2495214 2.1561956s-.5594711 1.1114783-1.2495214.7127174c-.6900504-.3987608-1.2495214-1.3640869-1.2495214-2.1561956s.559471-1.1114783 1.2495214-.7127174"/><path d="m23.4292114 21.6015439c.6900504.3987609 1.2495214 1.364087 1.2495214 2.1561957s-.559471 1.1114782-1.2495214.7127174c-.6900503-.3987609-1.2495214-1.364087-1.2495214-2.1561957s.5594711-1.1114783 1.2495214-.7127174"/></g></g><use fill="#000" filter="url(#z)" xlink:href="#y"/><use fill="url(#x)" fill-rule="evenodd" xlink:href="#y"/><use fill="#000" filter="url(#B)" xlink:href="#A"/><use fill="url(#x)" fill-rule="evenodd" xlink:href="#A"/><use fill="#000" filter="url(#D)" xlink:href="#C"/><use fill="url(#x)" fill-rule="evenodd" xlink:href="#C"/><use fill="#000" filter="url(#F)" xlink:href="#E"/><use fill="url(#x)" fill-rule="evenodd" xlink:href="#E"/></g><g opacity=".1" stroke="#fff" stroke-linecap="square" stroke-width=".779447" transform="translate(0 13)"><path d="m255.044362 234.106979-28.815803 17.131808v11.233527"/><path d="m239.468252 195.171053-28.815803 17.131807v11.233527"/><path d="m364.077131 187.383867-28.815803 17.131808v11.233526"/><path d="m146.011594 78.3632723-28.815804 17.1318078v11.2335259"/><path d="m128.877873 22.2955378-28.815803 17.1318077v11.2335264"/><path d="m153.799648 226.319794-28.815803 17.131808v11.233526"/><path d="m29.1907698 101.724828-28.81580314 17.131808v11.233527"/><path d="m223.892143 16.0657895-28.815804 17.1318078v11.2335263"/><path d="m355.120868 131.705492-28.815803 17.131808v11.233526"/><path d="m402.628003 91.2121281-28.815803 17.1318079v11.233526"/><path d="m344.913389 52.9599542-28.815803 17.1318078v11.2335264"/><path d="m161.587703 125.086384-28.815803 17.131808v11.233527"/><path d="m362.51952 256.689817-28.815803 17.131808v11.233526"/><path d="m122.647429 109.512014-28.8158034 17.131808v11.233526" transform="matrix(-1 0 0 1 216.479054 0)"/><path d="m200.527978 171.809497-28.815803 17.131807v11.233527" transform="matrix(-1 0 0 1 372.240152 0)"/><path d="m177.163813 148.447941-28.815803 17.131807" transform="matrix(-1 0 0 1 325.511824 0)"/><path d="m99.2832641 112.626888-28.8158032 17.131808" transform="matrix(-1 0 0 1 169.750724 0)"/><path d="m32.8019137 139.588444-28.81580314 17.131808" transform="matrix(-1 0 0 1 36.788024 0)"/><path d="m178.721424 71.3548055-28.815803 17.1318078" transform="matrix(-1 0 0 1 328.627046 0)"/><path d="m187.713194 24.3573227-28.815803 17.1318077" transform="matrix(-1 0 0 1 346.610584 0)"/><path d="m256.601973 24.6316934-28.815803 17.1318077" transform="matrix(-1 0 0 1 484.388144 0)"/><path d="m303.330303 40.2060641-28.815803 17.1318078" transform="matrix(-1 0 0 1 577.844802 0)"/><path d="m365.634742 79.1419908-28.815803 17.1318078" transform="matrix(-1 0 0 1 702.45368 0)"/><path d="m358.625493 153.120252-28.815804 17.131807"/><path d="m162.366509 113.405606-28.815803 17.131808"/><path d="m107.850124 89.2653318-28.8158027 17.1318082"/><path d="m72.8038774 184.268993-28.8158032 17.131808"/><path d="m259.717195 262.140847-28.815803 17.131807"/><path d="m306.445525 269.358238-28.815803 17.131808"/><path d="m436.506042 145.333066-28.815803 17.131808"/><path d="m436.506042 230.992105-28.815803 17.131808"/><path d="m428.717987 199.843364-28.815803 17.131808"/><path d="m378.874435 200.622082-28.815803 17.131808"/><path d="m435.727236 172.588215-28.815803 17.131808" transform="matrix(-1 0 0 1 842.63867 0)"/><path d="m395.92759 270.45984-28.815803 17.131808" transform="matrix(-1 0 0 1 763.039378 0)"/><path d="m121.868623 213.860297-28.8158029 17.131808" transform="matrix(-1 0 0 1 214.921444 0)"/><path d="m86.0435707 161.686156-28.8158032 17.131807" transform="matrix(-1 0 0 1 143.271338 0)"/><path d="m182.615452 174.924371-28.815804 17.131807" transform="matrix(-1 0 0 1 336.4151 0)"/><path d="m293.205831 53.4442792-28.815803 17.1318078v11.2335263" transform="matrix(-1 0 0 1 557.59586 0)"/><path d="m317.348802 234.106979-28.815804 17.131808v11.233527" transform="matrix(-1 0 0 1 605.8818 0)"/><path d="m167.039342 90.8227689-28.815803 17.1318081 9.609109 5.465004"/><path d="m197.887024.38935927-28.815803 17.13180773 9.609109 5.4650048"/><path d="m48.6609071 69.0186499-28.8158032 17.1318078 9.6091097 5.4650047"/><path d="m64.2370169 131.316133-28.8158031 17.131808 9.6091097 5.465004"/><path d="m305.666719 115.741762-28.815803 17.131808 9.60911 5.465005"/><path d="m375.759213 154.677689-28.815803 17.131808 9.60911 5.465004"/><path d="m399.123378 232.549542-28.815803 17.131808 9.60911 5.465005"/><path d="m290.090609 240.336728-28.815803 17.131807 9.60911 5.465005" transform="matrix(-1 0 0 1 551.365416 0)"/><path d="m118.753401 139.103318-28.8158028 17.131808 9.6091097 5.465005" transform="matrix(-1 0 0 1 208.691 0)"/><path d="m56.448962 162.464874-28.8158031 17.131808 9.6091097 5.465005" transform="matrix(-1 0 0 1 84.08212 0)"/><path d="m196.63395 236.443135-28.815803 17.131808 9.60911 5.465005" transform="matrix(-1 0 0 1 364.452098 0)"/><path d="m414.699488 119.635355-28.815803 17.131807 9.60911 5.465005" transform="matrix(-1 0 0 1 800.583172 0)"/><path d="m191.182312 191.27746-28.815803 17.131808 9.60911 5.465004" transform="matrix(-1 0 0 1 353.54882 0)"/></g></g></svg>
