<svg xmlns="http://www.w3.org/2000/svg" xmlns:xlink="http://www.w3.org/1999/xlink" width="1053" height="797" viewBox="0 0 1053 797"><title>Kubernetes_Illustration</title><defs><linearGradient id="a" x1="100%" x2="9.9191%" y1="-6.5167%" y2="89.5824%"><stop offset="0%" stop-color="#0FF"/><stop offset="100%" stop-color="#04FDFF" stop-opacity="0"/></linearGradient><linearGradient id="b" x1="51.4004%" x2="97.4994%" y1="93.6804%" y2="8.6129%"><stop offset="0%" stop-color="#283DE1" stop-opacity="0"/><stop offset="100%" stop-color="#176CFD"/></linearGradient><linearGradient id="c" x1="47.6904%" x2="15.0074%" y1="84.3045%" y2="0%"><stop offset="0%" stop-color="#293CE0" stop-opacity="0"/><stop offset="100%" stop-color="#293CE0"/></linearGradient><linearGradient id="d" x1="50%" x2="32.7208%" y1="86.7137%" y2="21.9658%"><stop offset="0%" stop-color="#0FF"/><stop offset="100%" stop-color="#0FF" stop-opacity="0"/></linearGradient><linearGradient id="e" x1="50%" x2="32.7208%" y1="86.7137%" y2="21.9658%"><stop offset="0%" stop-color="#0FF"/><stop offset="97.3672%" stop-color="#0FF" stop-opacity="0"/></linearGradient><linearGradient id="f" x1="50%" x2="32.7208%" y1="86.7137%" y2="21.9658%"><stop offset="0%" stop-color="#0FF"/><stop offset="97.9159%" stop-color="#0FF" stop-opacity="0"/></linearGradient><linearGradient id="g" x1="46.0825%" x2="32.5558%" y1="11.6644%" y2="81.03%"><stop offset="0%" stop-color="#00E1FF"/><stop offset="100%" stop-color="#0FF" stop-opacity="0"/></linearGradient><linearGradient id="h" x1="13.8435%" x2="78.6961%" y1="34.0099%" y2="50%"><stop offset="0%" stop-color="#0FF"/><stop offset="98.3607%" stop-color="#0FF" stop-opacity="0"/></linearGradient><linearGradient id="i" x1="-18.637%" x2="47.9226%" y1="83.9542%" y2="15.4341%"><stop offset="0%" stop-color="#0FF"/><stop offset="100%" stop-color="#0FF" stop-opacity="0"/></linearGradient><filter id="j" width="136%" height="162.4%" x="-18%" y="-31.2%" filterUnits="objectBoundingBox"><feGaussianBlur in="SourceGraphic" stdDeviation="9.3996"/></filter><linearGradient id="k" x1="100%" x2="13.62%" y1="89.2651%" y2="21.7298%"><stop offset="0%" stop-color="#66A3FF"/><stop offset="100%" stop-color="#2938DE"/></linearGradient><linearGradient id="l" x1="0%" y1="81.9888%" y2="0%"><stop offset="0%" stop-color="#293FE1"/><stop offset="97.6021%" stop-color="#1C69F9"/></linearGradient><linearGradient id="n" x1="88.3194%" x2="12.3231%" y1="75.6446%" y2="27.78%"><stop offset="0%" stop-color="#5EA8FF"/><stop offset="100%" stop-color="#8FC6FF"/></linearGradient><path id="m" d="M78.2569 0L0 45.1662l78.2569 45.1662 78.257-45.1662z"/><filter id="o" width="107.7%" height="113.3%" x="-3.8%" y="-6.6%" filterUnits="objectBoundingBox"><feGaussianBlur in="SourceGraphic" stdDeviation="2"/></filter><linearGradient id="q" x1="81.242%" x2="0%" y1="-18.1903%" y2="50%"><stop offset="0%" stop-color="#00F3FA"/><stop offset="100%" stop-color="#00FDFE" stop-opacity="0"/></linearGradient><path id="r" d="M78.2569 0L0 45.1662l78.2569 45.1662 78.257-45.1662z"/><filter id="s" width="107.7%" height="113.3%" x="-3.8%" y="-6.6%" filterUnits="objectBoundingBox"><feGaussianBlur in="SourceGraphic" stdDeviation="2"/></filter><path id="u" d="M78.2569 0L0 45.1662l78.2569 45.1662 78.257-45.1662z"/><filter id="v" width="107.7%" height="113.3%" x="-3.8%" y="-6.6%" filterUnits="objectBoundingBox"><feGaussianBlur in="SourceGraphic" stdDeviation="2"/></filter><path id="x" d="M78.2569 0L0 45.1662l78.2569 45.1662 78.257-45.1662z"/><filter id="y" width="107.7%" height="113.3%" x="-3.8%" y="-6.6%" filterUnits="objectBoundingBox"><feGaussianBlur in="SourceGraphic" stdDeviation="2"/></filter><linearGradient id="A" x1="70.6209%" x2="8.9223%" y1="74.2894%" y2="16.774%"><stop offset="0%" stop-color="#2C3EE0"/><stop offset="100%" stop-color="#5E95FB"/></linearGradient><filter id="B" width="126.7%" height="145.9%" x="-13.4%" y="-23%" filterUnits="objectBoundingBox"><feGaussianBlur in="SourceGraphic" stdDeviation="13.0831"/></filter><linearGradient id="C" x1="33.2741%" x2="33.2741%" y1="-47.3465%" y2="74.5855%"><stop offset="0%" stop-color="#00A8DD"/><stop offset="100%" stop-color="#00A8DD" stop-opacity="0"/></linearGradient><linearGradient id="D" x1="33.2741%" x2="33.2741%" y1="-7.2903%" y2="67.1661%"><stop offset="0%" stop-color="#00A8DD"/><stop offset="100%" stop-color="#00A8DD" stop-opacity="0"/></linearGradient><linearGradient id="E" x1="41.743%" x2="76.6046%" y1="24.1506%" y2="138.0314%"><stop offset="0%" stop-color="#5EA8FF"/><stop offset="100%" stop-color="#2152ED"/></linearGradient><filter id="F" width="127.1%" height="146.8%" x="-13.5%" y="-23.4%" filterUnits="objectBoundingBox"><feGaussianBlur in="SourceGraphic" stdDeviation="9.3996"/></filter><linearGradient id="G" x1="39.0978%" x2="77.801%" y1="35.1248%" y2="100%"><stop offset="0%" stop-color="#5EA8FF"/><stop offset="100%" stop-color="#3776F6"/></linearGradient><filter id="H" width="127.1%" height="146.8%" x="-13.5%" y="-23.4%" filterUnits="objectBoundingBox"><feGaussianBlur in="SourceGraphic" stdDeviation="9.3996"/></filter><filter id="I" width="127.1%" height="146.8%" x="-13.5%" y="-23.4%" filterUnits="objectBoundingBox"><feGaussianBlur in="SourceGraphic" stdDeviation="9.3996"/></filter><linearGradient id="J" x1="0%" x2="110.9176%" y1="80.8931%" y2="14.2904%"><stop offset="0%" stop-color="#00A8DD"/><stop offset="100%" stop-color="#0FF"/></linearGradient><linearGradient id="K" x1="100%" x2="-9.9478%" y1="50%" y2="50%"><stop offset="0%" stop-color="#8FC6FF"/><stop offset="100%" stop-color="#F3F8FF"/></linearGradient><linearGradient id="L" x1="78.8591%" x2=".6274%" y1="-16.1903%" y2="49.4734%"><stop offset="0%" stop-color="#FFF"/><stop offset="100%" stop-color="#FFF" stop-opacity="0"/></linearGradient><linearGradient id="M" x1="-51.1884%" x2="90.1942%" y1="-50.2461%" y2="87.1322%"><stop offset="0%" stop-color="#0A2688" stop-opacity="0"/><stop offset="100%" stop-color="#8ACAFF" stop-opacity=".3703"/></linearGradient><linearGradient id="N" x1="100%" x2="9.9191%" y1="-6.5167%" y2="89.5824%"><stop offset="0%" stop-color="#0FF"/><stop offset="100%" stop-color="#0A2688" stop-opacity="0"/></linearGradient><linearGradient id="O" x1="50%" x2="50%" y1="-91.351%" y2="70.6454%"><stop offset="0%" stop-color="#B8DFFF" stop-opacity=".8"/><stop offset="100%" stop-color="#8ACAFF" stop-opacity=".2"/></linearGradient><linearGradient id="P" x1="100%" x2="13.62%" y1="89.2651%" y2="21.7298%"><stop offset="0%" stop-color="#176FFE"/><stop offset="100%" stop-color="#2938DE"/></linearGradient><linearGradient id="Q" x1="-19.7708%" x2="86.7188%" y1="-15.8861%" y2="123.1121%"><stop offset="0%" stop-color="#176FFE"/><stop offset="100%" stop-color="#2938DE"/></linearGradient><filter id="R" width="138.1%" height="165.7%" x="-19%" y="-32.8%" filterUnits="objectBoundingBox"><feGaussianBlur in="SourceGraphic" stdDeviation="13.0831"/></filter><filter id="S" width="138.5%" height="166.9%" x="-19.2%" y="-33.5%" filterUnits="objectBoundingBox"><feGaussianBlur in="SourceGraphic" stdDeviation="9.3996"/></filter><filter id="T" width="138.1%" height="165.7%" x="-19%" y="-32.8%" filterUnits="objectBoundingBox"><feGaussianBlur in="SourceGraphic" stdDeviation="13.0831"/></filter><filter id="U" width="138.5%" height="166.9%" x="-19.2%" y="-33.5%" filterUnits="objectBoundingBox"><feGaussianBlur in="SourceGraphic" stdDeviation="9.3996"/></filter><path id="V" d="M73.2724 13.2925L0 55.4238l73.2724 42.1313 73.2724-42.1313z"/><filter id="W" width="138.5%" height="166.9%" x="-19.2%" y="-33.5%" filterUnits="objectBoundingBox"><feGaussianBlur in="SourceGraphic" stdDeviation="9.3996"/></filter><filter id="Y" width="153.4%" height="191.6%" x="-26.7%" y="-45.8%" filterUnits="objectBoundingBox"><feGaussianBlur in="SourceGraphic" stdDeviation="13.0831"/></filter><filter id="Z" width="153.9%" height="193.2%" x="-26.9%" y="-46.6%" filterUnits="objectBoundingBox"><feGaussianBlur in="SourceGraphic" stdDeviation="9.3996"/></filter><filter id="aa" width="153.4%" height="191.6%" x="-26.7%" y="-45.8%" filterUnits="objectBoundingBox"><feGaussianBlur in="SourceGraphic" stdDeviation="13.0831"/></filter><filter id="ab" width="153.9%" height="193.3%" x="-26.9%" y="-46.6%" filterUnits="objectBoundingBox"><feGaussianBlur in="SourceGraphic" stdDeviation="9.3996"/></filter><filter id="ac" width="153.9%" height="193.3%" x="-26.9%" y="-46.6%" filterUnits="objectBoundingBox"><feGaussianBlur in="SourceGraphic" stdDeviation="9.3996"/></filter><filter id="ad" width="153.9%" height="193.3%" x="-26.9%" y="-46.6%" filterUnits="objectBoundingBox"><feGaussianBlur in="SourceGraphic" stdDeviation="9.3996"/></filter><filter id="ae" width="153.4%" height="191.6%" x="-26.7%" y="-45.8%" filterUnits="objectBoundingBox"><feGaussianBlur in="SourceGraphic" stdDeviation="13.0831"/></filter><filter id="af" width="153.9%" height="193.6%" x="-26.9%" y="-46.8%" filterUnits="objectBoundingBox"><feGaussianBlur in="SourceGraphic" stdDeviation="9.3996"/></filter><path id="ag" d="M52.3374 0L0 30.1108l52.3374 30.1108 52.3375-30.1108z"/><filter id="ah" width="111.5%" height="119.9%" x="-5.7%" filterUnits="objectBoundingBox"><feGaussianBlur in="SourceGraphic" stdDeviation="2"/></filter><path id="aj" d="M52.3374 0L0 30.1108l52.3374 30.1108 52.3375-30.1108z"/><filter id="ak" width="111.5%" height="119.9%" x="-5.7%" filterUnits="objectBoundingBox"><feGaussianBlur in="SourceGraphic" stdDeviation="2"/></filter><path id="am" d="M52.3374 0L0 30.1108l52.3374 30.1108 52.3375-30.1108z"/><filter id="an" width="111.5%" height="119.9%" x="-5.7%" filterUnits="objectBoundingBox"><feGaussianBlur in="SourceGraphic" stdDeviation="2"/></filter><path id="ap" d="M52.3374 0L0 30.1108l52.3374 30.1108 52.3375-30.1108z"/><filter id="aq" width="111.5%" height="119.9%" x="-5.7%" filterUnits="objectBoundingBox"><feGaussianBlur in="SourceGraphic" stdDeviation="2"/></filter><filter id="as" width="209%" height="286.7%" x="-54.5%" y="-93.4%" filterUnits="objectBoundingBox"><feGaussianBlur in="SourceGraphic" stdDeviation="13.0831"/></filter><filter id="at" width="210.9%" height="291.8%" x="-55.5%" y="-95.9%" filterUnits="objectBoundingBox"><feGaussianBlur in="SourceGraphic" stdDeviation="9.3996"/></filter><filter id="au" width="209%" height="286.7%" x="-54.5%" y="-93.4%" filterUnits="objectBoundingBox"><feGaussianBlur in="SourceGraphic" stdDeviation="13.0831"/></filter><filter id="av" width="210.9%" height="291.1%" x="-55.5%" y="-95.5%" filterUnits="objectBoundingBox"><feGaussianBlur in="SourceGraphic" stdDeviation="9.3996"/></filter><filter id="aw" width="210.9%" height="291.1%" x="-55.5%" y="-95.5%" filterUnits="objectBoundingBox"><feGaussianBlur in="SourceGraphic" stdDeviation="9.3996"/></filter><filter id="ax" width="210.9%" height="291.1%" x="-55.5%" y="-95.5%" filterUnits="objectBoundingBox"><feGaussianBlur in="SourceGraphic" stdDeviation="9.3996"/></filter><filter id="ay" width="209%" height="286.7%" x="-54.5%" y="-93.4%" filterUnits="objectBoundingBox"><feGaussianBlur in="SourceGraphic" stdDeviation="13.0831"/></filter><filter id="az" width="210.9%" height="291.8%" x="-55.5%" y="-95.9%" filterUnits="objectBoundingBox"><feGaussianBlur in="SourceGraphic" stdDeviation="9.3996"/></filter><filter id="aA" width="153.4%" height="191.6%" x="-26.7%" y="-45.8%" filterUnits="objectBoundingBox"><feGaussianBlur in="SourceGraphic" stdDeviation="13.0831"/></filter><filter id="aB" width="153.9%" height="193.3%" x="-26.9%" y="-46.6%" filterUnits="objectBoundingBox"><feGaussianBlur in="SourceGraphic" stdDeviation="9.3996"/></filter><path id="aC" d="M52.3374 9.5375L0 39.7674l52.3374 30.2298 52.3375-30.2298z"/><filter id="aD" width="153.9%" height="193.3%" x="-26.9%" y="-46.6%" filterUnits="objectBoundingBox"><feGaussianBlur in="SourceGraphic" stdDeviation="9.3996"/></filter><filter id="aF" width="153.4%" height="191.3%" x="-26.7%" y="-45.7%" filterUnits="objectBoundingBox"><feGaussianBlur in="SourceGraphic" stdDeviation="13.0831"/></filter><filter id="aG" width="153.9%" height="193.3%" x="-26.9%" y="-46.6%" filterUnits="objectBoundingBox"><feGaussianBlur in="SourceGraphic" stdDeviation="9.3996"/></filter><filter id="aH" width="153.9%" height="193.3%" x="-26.9%" y="-46.6%" filterUnits="objectBoundingBox"><feGaussianBlur in="SourceGraphic" stdDeviation="9.3996"/></filter><filter id="aI" width="153.9%" height="193.3%" x="-26.9%" y="-46.6%" filterUnits="objectBoundingBox"><feGaussianBlur in="SourceGraphic" stdDeviation="9.3996"/></filter><filter id="aJ" width="153.4%" height="191.3%" x="-26.7%" y="-45.7%" filterUnits="objectBoundingBox"><feGaussianBlur in="SourceGraphic" stdDeviation="13.0831"/></filter><filter id="aK" width="153.9%" height="193.2%" x="-26.9%" y="-46.6%" filterUnits="objectBoundingBox"><feGaussianBlur in="SourceGraphic" stdDeviation="9.3996"/></filter><linearGradient id="aL" x1="50%" x2="50%" y1="3.0342%" y2="95.0884%"><stop offset="0%" stop-color="#FFF" stop-opacity="0"/><stop offset="100%" stop-color="#FFF" stop-opacity=".0573"/></linearGradient><filter id="aM" width="122.2%" height="110.7%" x="-11.1%" y="-5.4%" filterUnits="objectBoundingBox"><feGaussianBlur in="SourceGraphic" stdDeviation="7.7143"/></filter><linearGradient id="aN" x1="50%" x2="50%" y1="-27.9369%" y2="61.4998%"><stop offset="0%" stop-color="#FFF" stop-opacity=".5"/><stop offset="100%" stop-color="#FFF" stop-opacity="0"/></linearGradient><linearGradient id="aO" x1="50%" x2="50%" y1="1.414%" y2="44.8013%"><stop offset="0%" stop-color="#FFF" stop-opacity=".5"/><stop offset="100%" stop-color="#FFF" stop-opacity="0"/></linearGradient><rect id="aQ" width="23" height="23" x="93" y="112" rx="11.5"/><filter id="aP" width="360.9%" height="360.9%" x="-130.4%" y="-130.4%" filterUnits="objectBoundingBox"><feOffset in="SourceAlpha" result="shadowOffsetOuter1"/><feGaussianBlur in="shadowOffsetOuter1" result="shadowBlurOuter1" stdDeviation="10"/><feComposite in="shadowBlurOuter1" in2="SourceAlpha" operator="out" result="shadowBlurOuter1"/><feColorMatrix in="shadowBlurOuter1" values="0 0 0 0 1 0 0 0 0 1 0 0 0 0 1 0 0 0 1 0"/></filter><rect id="aS" width="11" height="11" x="99" y="118" rx="5.5"/><filter id="aR" width="645.5%" height="645.5%" x="-272.7%" y="-272.7%" filterUnits="objectBoundingBox"><feOffset in="SourceAlpha" result="shadowOffsetOuter1"/><feGaussianBlur in="shadowOffsetOuter1" result="shadowBlurOuter1" stdDeviation="10"/><feColorMatrix in="shadowBlurOuter1" values="0 0 0 0 1 0 0 0 0 1 0 0 0 0 1 0 0 0 1 0"/></filter><linearGradient id="aT" x1="50%" x2="50%" y1="-24.7785%" y2="61.4998%"><stop offset="0%" stop-color="#FFF" stop-opacity=".8"/><stop offset="100%" stop-color="#FFF" stop-opacity="0"/></linearGradient><circle id="aV" cx="183.5" cy="367.5" r="1.5"/><filter id="aU" width="700%" height="700%" x="-300%" y="-300%" filterUnits="objectBoundingBox"><feOffset in="SourceAlpha" result="shadowOffsetOuter1"/><feGaussianBlur in="shadowOffsetOuter1" result="shadowBlurOuter1" stdDeviation="3"/><feColorMatrix in="shadowBlurOuter1" values="0 0 0 0 1 0 0 0 0 1 0 0 0 0 1 0 0 0 0.73997962 0"/></filter><circle id="aX" cx="161.5" cy="423.5" r="1.5"/><filter id="aW" width="700%" height="700%" x="-300%" y="-300%" filterUnits="objectBoundingBox"><feOffset in="SourceAlpha" result="shadowOffsetOuter1"/><feGaussianBlur in="shadowOffsetOuter1" result="shadowBlurOuter1" stdDeviation="3"/><feColorMatrix in="shadowBlurOuter1" values="0 0 0 0 1 0 0 0 0 1 0 0 0 0 1 0 0 0 0.73997962 0"/></filter><circle id="aZ" cx="351.5" cy="423.5" r="1.5"/><filter id="aY" width="700%" height="700%" x="-300%" y="-300%" filterUnits="objectBoundingBox"><feOffset in="SourceAlpha" result="shadowOffsetOuter1"/><feGaussianBlur in="shadowOffsetOuter1" result="shadowBlurOuter1" stdDeviation="3"/><feColorMatrix in="shadowBlurOuter1" values="0 0 0 0 1 0 0 0 0 1 0 0 0 0 1 0 0 0 0.73997962 0"/></filter><circle id="bb" cx="551.5" cy="171.5" r="1.5"/><filter id="ba" width="700%" height="700%" x="-300%" y="-300%" filterUnits="objectBoundingBox"><feOffset in="SourceAlpha" result="shadowOffsetOuter1"/><feGaussianBlur in="shadowOffsetOuter1" result="shadowBlurOuter1" stdDeviation="3"/><feColorMatrix in="shadowBlurOuter1" values="0 0 0 0 1 0 0 0 0 1 0 0 0 0 1 0 0 0 0.73997962 0"/></filter><circle id="bd" cx="1.5" cy="130.5" r="1.5"/><filter id="bc" width="700%" height="700%" x="-300%" y="-300%" filterUnits="objectBoundingBox"><feOffset in="SourceAlpha" result="shadowOffsetOuter1"/><feGaussianBlur in="shadowOffsetOuter1" result="shadowBlurOuter1" stdDeviation="3"/><feColorMatrix in="shadowBlurOuter1" values="0 0 0 0 1 0 0 0 0 1 0 0 0 0 1 0 0 0 0.73997962 0"/></filter><circle id="bf" cx="181.5" cy="1.5" r="1.5"/><filter id="be" width="700%" height="700%" x="-300%" y="-300%" filterUnits="objectBoundingBox"><feOffset in="SourceAlpha" result="shadowOffsetOuter1"/><feGaussianBlur in="shadowOffsetOuter1" result="shadowBlurOuter1" stdDeviation="3"/><feColorMatrix in="shadowBlurOuter1" values="0 0 0 0 1 0 0 0 0 1 0 0 0 0 1 0 0 0 0.73997962 0"/></filter><circle id="bh" cx="314.5" cy="358.5" r="1.5"/><filter id="bg" width="700%" height="700%" x="-300%" y="-300%" filterUnits="objectBoundingBox"><feOffset in="SourceAlpha" result="shadowOffsetOuter1"/><feGaussianBlur in="shadowOffsetOuter1" result="shadowBlurOuter1" stdDeviation="3"/><feColorMatrix in="shadowBlurOuter1" values="0 0 0 0 1 0 0 0 0 1 0 0 0 0 1 0 0 0 0.73997962 0"/></filter><linearGradient id="bi" x1="89.5254%" x2="9.9354%" y1="11.225%" y2="90.7628%"><stop offset="0%" stop-color="#0FF"/><stop offset="100%" stop-color="#0FF" stop-opacity="0"/></linearGradient><linearGradient id="bj" x1="43.4994%" x2="53.8565%" y1="82.821%" y2="50%"><stop offset="0%" stop-color="#0FF"/><stop offset="100%" stop-color="#0FF" stop-opacity="0"/></linearGradient><circle id="bl" cx="763.5" cy="314.5" r="1.5"/><filter id="bk" width="700%" height="700%" x="-300%" y="-300%" filterUnits="objectBoundingBox"><feOffset in="SourceAlpha" result="shadowOffsetOuter1"/><feGaussianBlur in="shadowOffsetOuter1" result="shadowBlurOuter1" stdDeviation="3"/><feColorMatrix in="shadowBlurOuter1" values="0 0 0 0 1 0 0 0 0 1 0 0 0 0 1 0 0 0 0.73997962 0"/></filter><circle id="bn" cx="890.5" cy="412.5" r="1.5"/><filter id="bm" width="700%" height="700%" x="-300%" y="-300%" filterUnits="objectBoundingBox"><feOffset in="SourceAlpha" result="shadowOffsetOuter1"/><feGaussianBlur in="shadowOffsetOuter1" result="shadowBlurOuter1" stdDeviation="3"/><feColorMatrix in="shadowBlurOuter1" values="0 0 0 0 1 0 0 0 0 1 0 0 0 0 1 0 0 0 0.73997962 0"/></filter></defs><g fill="none" fill-rule="evenodd"><path fill="url(#a)" d="M189.142 653.0744l-38.8581 22.4628L189.142 698 228 675.5372zM119.142 633.0744l-38.8581 22.4628L119.142 678 158 655.5372zM199.142 603.0744l-38.8581 22.4628L199.142 648 238 625.5372zM139.142 743.0744l-38.8581 22.4628L139.142 788 178 765.5372zM39.142 743.0744L.2839 765.5372 39.142 788 78 765.5372zM669.142 743.0744l-38.8581 22.4628L669.142 788 708 765.5372zM750.142 741.0744l-38.8581 22.4628L750.142 786 789 763.5372z" opacity=".1794" transform="translate(0 -15)"/><g opacity=".5"><path fill="url(#b)" d="M41.5063 47.9346L.0554 23.9775v327.1259l41.4509 23.9572z" transform="translate(950 41)"/><path fill="url(#c)" d="M41.4665 47.8517l41.4509-23.9571v327.1586l-41.4509 23.9571z" transform="translate(950 41)"/><path fill="#3776F6" d="M991.4509 41L950 64.9583l41.4509 23.9571 41.4509-23.9571z"/></g><g opacity=".3"><path fill="url(#b)" d="M20.7532 23.9673L.0277 11.9888v163.5629l20.7255 11.9786z" transform="translate(620 160)"/><path fill="url(#c)" d="M20.7332 23.9259l20.7255-11.9786v163.5793l-20.7255 11.9785z" transform="translate(620 160)"/><path fill="#3776F6" d="M640.7254 160L620 171.9791l20.7254 11.9786 20.7255-11.9786z"/></g><path fill="url(#b)" d="M16.8002 19.1228L.0224 9.5655v130.5023l16.7778 9.5574z" transform="translate(357 328)"/><path fill="url(#c)" d="M16.7841 19.0898l16.7777-9.5574v130.5154l-16.7777 9.5574z" transform="translate(357 328)"/><path fill="#3776F6" d="M373.7777 328L357 337.5578l16.7777 9.5574 16.7778-9.5574z"/><path stroke="url(#d)" d="M712.0836 317.0265l-.8634.0793-.8313.1313-.7898.1833-.7396.2333-.718.2985-136.3204 78.6802-.5669.3729-.4711.4096-.3653.4386-.2624.4815-.1351.4802-.0203.4913.0894.4919.1934.4937.2738.4626.3511.4466.4156.4221.4998.4176.5457.3821 128.6038 74.2627.6546.3482.6925.3114.7255.2742.7519.2358.7737.1966.8417.1658.8501.1197.854.0733.8492.0264.888-.0232.8653-.0761.8332-.1284.7925-.1801.7425-.2302.7218-.2963 136.3581-78.6978.5668-.3725.4714-.4099.3655-.4385.2627-.4815.135-.4802.0199-.4912-.0888-.4919-.1937-.4943-.2739-.4628-.3514-.4463-.4157-.422-.4997-.4174-.5451-.382-128.6044-74.2632-.6547-.3477-.6924-.3117-.7255-.2739-.7519-.2362-.7737-.1965-.8407-.1653-.8512-.12-.8539-.0736-.8493-.0265z" transform="translate(41 184)"/><path stroke="url(#e)" d="M431.0836.0265l-.8634.0793-.8313.1313-.7898.1833-.7396.2333-.718.2985-136.3204 78.6802-.5669.3729-.4711.4096-.3653.4386-.2624.4815-.1351.4802-.0203.4913.0894.4919.1934.4937.2738.4626.3511.4467.4156.422.4998.4176.5457.3821 128.6038 74.2627.6546.3482.6925.3114.7255.2742.7519.2358.7737.1966.8417.1658.8501.1197.854.0733.8492.0264.888-.0232.8653-.0761.8332-.1284.7925-.1801.7425-.2302.7218-.2963 136.3581-78.6978.5668-.3725.4714-.4099.3655-.4385.2627-.4815.135-.4802.0199-.4912-.0888-.4919-.1937-.4943-.2739-.4628-.3514-.4463-.4157-.422-.4997-.4174-.5451-.382L439.0158 1.7514l-.6547-.3477-.6924-.3117-.7255-.2739-.7519-.2362-.7737-.1965-.8407-.1653-.8512-.12-.8539-.0736L432.0225 0z" transform="rotate(180 449.9942 172.7186)"/><path stroke="url(#f)" d="M257.379 296.0479l-1.564.1438-1.5059.2378-1.4305.332-1.3399.4226-1.3005.5408L3.2988 440.251l-1.0268.6756-.8534.742-.6617.7945-.4754.8722-.2447.8698-.0368.89.1619.891.3504.8944.4959.838.6361.8091.7527.7645.9054.7565.9886.6921 232.9609 134.524 1.1859.6308 1.2543.5642 1.3142.4967 1.3621.4271 1.4015.3561 1.5246.3003 1.5401.2169 1.5469.1327 1.5384.048 1.6085-.0421 1.5675-.138 1.5093-.2325 1.4356-.3262 1.345-.417 1.3074-.5368 247.0076-142.5581 1.0267-.6748.8539-.7424.6623-.7944.4757-.8722.2447-.8698.0359-.8898-.1609-.8912-.3507-.8953-.4963-.8383-.6366-.8085-.7529-.7644-.9052-.7562-.9874-.692-232.9621-134.5249-1.1859-.6298-1.2543-.5647-1.3142-.4962-1.3621-.4278-1.4014-.3559-1.523-.2995-1.5418-.2173-1.5469-.1335-1.5384-.0479z" transform="translate(41 184)"/><path stroke="url(#d)" d="M806.0555 46.0259l-.845.0776-.8136.1286-.7729.1793-.724.2284-.7026.2921-133.418 77.005-.5548.365-.4611.4009-.3575.4292-.2568.4713-.1322.4699-.0199.4809.0875.4814.1893.4832.2679.4528.3437.4371.4067.4131.4892.4087.5341.3739 125.8656 72.6815.6407.3408.6777.3048.71.2684.736.2308.7572.1924.8237.1622.8321.1172.8358.0717.8311.0259.8691-.0227.8469-.0746.8154-.1256.7757-.1762.7267-.2253.7063-.2901 133.4549-77.0222.5547-.3645.4614-.4012.3578-.4292.257-.4712.1322-.4699.0194-.4808-.0869-.4815-.1895-.4837-.2681-.4529-.344-.4369-.4068-.413-.489-.4085-.5335-.3739-125.8663-72.682-.6407-.3402-.6777-.3051-.71-.2682-.736-.2311-.7571-.1923-.8229-.1618-.833-.1174-.8358-.0721-.8311-.0259z" transform="translate(41 184)"/><path stroke="url(#g)" d="M626.0555 227.0259l-.845.0776-.8136.1286-.7729.1793-.724.2284-.7026.2921-133.418 77.005-.5548.365-.4611.4009-.3575.4292-.2568.4713-.1322.4699-.0199.4809.0875.4814.1893.4832.2679.4528.3437.4371.4067.4131.4892.4087.5341.3739 125.8656 72.6815.6407.3408.6777.3048.71.2684.736.2308.7572.1924.8237.1622.8321.1172.8358.0717.8311.0259.8691-.0227.8469-.0746.8154-.1256.7757-.1762.7267-.2253.7063-.2901 133.4549-77.0222.5547-.3645.4614-.4012.3578-.4292.257-.4712.1322-.4699.0194-.4808-.0869-.4815-.1895-.4837-.2681-.4529-.344-.4369-.4068-.413-.489-.4085-.5335-.3739-125.8663-72.682-.6407-.3402-.6777-.3051-.71-.2682-.736-.2311-.7571-.1923-.8229-.1618-.833-.1174-.8358-.0721-.8311-.0259z" transform="rotate(180 645 398)"/><path stroke="url(#h)" d="M608.5716 301L414.5914 412.9597l-.8067.5307-.6704.5829-.5198.6241-.3734.6851-.1922.6833-.0289.6991.1272.6999.2753.7026.3895.6583.4997.6355.5913.6006.7112.5943.7765.5436 182.9997 105.6738.9316.4955.9853.4432 1.0323.3902 1.07.3355 1.1009.2797 1.1977.2359 1.2098.1703 1.2152.1044 1.2084.0376 1.2636-.0331 1.2313-.1083 1.1855-.1827 1.1278-.2562 1.0566-.3276 1.027-.4217 194.0338-111.9848" transform="translate(41 184)"/><path stroke="url(#i)" d="M448.5716 51L254.5914 162.9597l-.8067.5307-.6704.5829-.5198.6241-.3734.6851-.1922.6833-.0289.6991.1272.6999.2753.7026.3895.6583.4997.6355.5913.6006.7112.5943.7765.5436 182.9997 105.6738.9316.4955.9853.4432 1.0323.3902 1.07.3355 1.1009.2797 1.1977.2359 1.2098.1703 1.2152.1044 1.2084.0376 1.2636-.0331 1.2312-.1083 1.1856-.1827 1.1278-.2562 1.0566-.3276 1.027-.4217 194.0338-111.9848" transform="translate(41 184)"/><g opacity=".2"><path fill="#0B024C" d="M78.2569 26.25L0 71.4162l78.2569 45.1662 78.257-45.1662z" filter="url(#j)" opacity=".2495" transform="translate(657 386)"/><g transform="translate(657 386)"><path fill="url(#k)" d="M78.3616 90.3707L.1046 45.2044v11.1738l78.257 45.1661z"/><path fill="url(#l)" d="M78.2863 90.2129l78.257-45.1662v11.5992l-78.257 45.1661z"/><mask id="p" fill="#fff"><use xlink:href="#m"/></mask><use fill="url(#n)" xlink:href="#m"/><path fill="#0140BB" d="M78.2569-5.25L0 39.9162l78.2569 45.1662 78.257-45.1662z" filter="url(#o)" mask="url(#p)" opacity=".2495"/></g><path fill="url(#q)" d="M63.9708 26.3896c-.1027-.0592-.2583-.0657-.347-.0144L29.3566 46.1278c-.089.0512-.0778.1409.025.2001l3.3495 1.9308c.1027.0593.2584.0657.3473.0144l34.267-19.7525c.089-.0513.0777-.141-.025-.2002l-3.3497-1.9308zM125.5689 39.8896c-.1027-.0592-.2583-.0657-.3471-.0144l-34.267 19.7526c-.089.0512-.0778.1409.025.2001l3.3495 1.9308c.1027.0593.2583.0657.3473.0144l34.267-19.7525c.089-.0513.0777-.141-.025-.2002l-3.3497-1.9308zM94.0186 41.3896c-.1027-.0592-.2582-.0657-.347-.0144l-34.267 19.7526c-.089.0512-.0778.1409.0249.2001l3.3496 1.9308c.1027.0593.2583.0657.3472.0144l34.267-19.7525c.089-.0513.0778-.141-.0249-.2002l-3.3498-1.9308zM75.652 38.4024c-.0945-.0545-.2378-.0604-.3197-.0132l-15.1813 8.751c-.082.0472-.0716.1298.023.1843l3.0838 1.7776c.0945.0545.2378.0604.3197.0132l15.1813-8.751c.082-.0472.0717-.1298-.023-.1842l-3.0838-1.7777zM95.9343 27.1524c-.0945-.0545-.2378-.0604-.3197-.0132l-15.1813 8.751c-.082.0472-.0716.1298.023.1843L83.54 37.852c.0945.0545.2378.0604.3197.0132l15.1813-8.751c.082-.0472.0716-.1298-.023-.1842l-3.0838-1.7777zM86.92 62.4024c-.0946-.0545-.2379-.0604-.3197-.0132l-15.1814 8.751c-.0819.0472-.0716.1298.023.1843l3.0838 1.7776c.0946.0545.2378.0604.3197.0132l15.1814-8.751c.0819-.0472.0716-.1298-.023-.1842L86.92 62.4024zM113.963 30.1524c-.0945-.0545-.2378-.0604-.3197-.0132l-15.1813 8.751c-.082.0472-.0716.1298.023.1843l3.0838 1.7776c.0945.0545.2378.0604.3197.0132l15.1813-8.751c.082-.0472.0717-.1298-.0229-.1842l-3.0839-1.7777z" transform="translate(657 386)"/></g><g opacity=".4"><g transform="translate(657 363.5)"><path fill="url(#k)" d="M78.3616 90.3707L.1046 45.2044v11.1738l78.257 45.1661z"/><path fill="url(#l)" d="M78.2863 90.2129l78.257-45.1662v11.5992l-78.257 45.1661z"/><mask id="t" fill="#fff"><use xlink:href="#r"/></mask><use fill="url(#n)" xlink:href="#r"/><path fill="#0140BB" d="M78.2569-5.25L0 39.9162l78.2569 45.1662 78.257-45.1662z" filter="url(#s)" mask="url(#t)" opacity=".2495"/></g><path fill="url(#q)" d="M63.9708 26.3896c-.1027-.0592-.2583-.0657-.347-.0144L29.3566 46.1278c-.089.0512-.0778.1409.025.2001l3.3495 1.9308c.1027.0593.2584.0657.3473.0144l34.267-19.7525c.089-.0513.0777-.141-.025-.2002l-3.3497-1.9308zM125.5689 39.8896c-.1027-.0592-.2583-.0657-.3471-.0144l-34.267 19.7526c-.089.0512-.0778.1409.025.2001l3.3495 1.9308c.1027.0593.2583.0657.3473.0144l34.267-19.7525c.089-.0513.0777-.141-.025-.2002l-3.3497-1.9308zM94.0186 41.3896c-.1027-.0592-.2582-.0657-.347-.0144l-34.267 19.7526c-.089.0512-.0778.1409.0249.2001l3.3496 1.9308c.1027.0593.2583.0657.3472.0144l34.267-19.7525c.089-.0513.0778-.141-.0249-.2002l-3.3498-1.9308zM75.652 38.4024c-.0945-.0545-.2378-.0604-.3197-.0132l-15.1813 8.751c-.082.0472-.0716.1298.023.1843l3.0838 1.7776c.0945.0545.2378.0604.3197.0132l15.1813-8.751c.082-.0472.0717-.1298-.023-.1842l-3.0838-1.7777zM95.9343 27.1524c-.0945-.0545-.2378-.0604-.3197-.0132l-15.1813 8.751c-.082.0472-.0716.1298.023.1843L83.54 37.852c.0945.0545.2378.0604.3197.0132l15.1813-8.751c.082-.0472.0716-.1298-.023-.1842l-3.0838-1.7777zM86.92 62.4024c-.0946-.0545-.2379-.0604-.3197-.0132l-15.1814 8.751c-.0819.0472-.0716.1298.023.1843l3.0838 1.7776c.0946.0545.2378.0604.3197.0132l15.1814-8.751c.0819-.0472.0716-.1298-.023-.1842L86.92 62.4024zM113.963 30.1524c-.0945-.0545-.2378-.0604-.3197-.0132l-15.1813 8.751c-.082.0472-.0716.1298.023.1843l3.0838 1.7776c.0945.0545.2378.0604.3197.0132l15.1813-8.751c.082-.0472.0717-.1298-.0229-.1842l-3.0839-1.7777z" transform="translate(657 363.5)"/></g><g opacity=".6"><g transform="translate(657 341)"><path fill="url(#k)" d="M78.3616 90.3707L.1046 45.2044v11.1738l78.257 45.1661z"/><path fill="url(#l)" d="M78.2863 90.2129l78.257-45.1662v11.5992l-78.257 45.1661z"/><mask id="w" fill="#fff"><use xlink:href="#u"/></mask><use fill="url(#n)" xlink:href="#u"/><path fill="#0140BB" d="M78.2569-5.25L0 39.9162l78.2569 45.1662 78.257-45.1662z" filter="url(#v)" mask="url(#w)" opacity=".2495"/></g><path fill="url(#q)" d="M63.9708 26.3896c-.1027-.0592-.2583-.0657-.347-.0144L29.3566 46.1278c-.089.0512-.0778.1409.025.2001l3.3495 1.9308c.1027.0593.2584.0657.3473.0144l34.267-19.7525c.089-.0513.0777-.141-.025-.2002l-3.3497-1.9308zM125.5689 39.8896c-.1027-.0592-.2583-.0657-.3471-.0144l-34.267 19.7526c-.089.0512-.0778.1409.025.2001l3.3495 1.9308c.1027.0593.2583.0657.3473.0144l34.267-19.7525c.089-.0513.0777-.141-.025-.2002l-3.3497-1.9308zM94.0186 41.3896c-.1027-.0592-.2582-.0657-.347-.0144l-34.267 19.7526c-.089.0512-.0778.1409.0249.2001l3.3496 1.9308c.1027.0593.2583.0657.3472.0144l34.267-19.7525c.089-.0513.0778-.141-.0249-.2002l-3.3498-1.9308zM75.652 38.4024c-.0945-.0545-.2378-.0604-.3197-.0132l-15.1813 8.751c-.082.0472-.0716.1298.023.1843l3.0838 1.7776c.0945.0545.2378.0604.3197.0132l15.1813-8.751c.082-.0472.0717-.1298-.023-.1842l-3.0838-1.7777zM95.9343 27.1524c-.0945-.0545-.2378-.0604-.3197-.0132l-15.1813 8.751c-.082.0472-.0716.1298.023.1843L83.54 37.852c.0945.0545.2378.0604.3197.0132l15.1813-8.751c.082-.0472.0716-.1298-.023-.1842l-3.0838-1.7777zM86.92 62.4024c-.0946-.0545-.2379-.0604-.3197-.0132l-15.1814 8.751c-.0819.0472-.0716.1298.023.1843l3.0838 1.7776c.0946.0545.2378.0604.3197.0132l15.1814-8.751c.0819-.0472.0716-.1298-.023-.1842L86.92 62.4024zM113.963 30.1524c-.0945-.0545-.2378-.0604-.3197-.0132l-15.1813 8.751c-.082.0472-.0716.1298.023.1843l3.0838 1.7776c.0945.0545.2378.0604.3197.0132l15.1813-8.751c.082-.0472.0717-.1298-.0229-.1842l-3.0839-1.7777z" transform="translate(657 341)"/></g><g opacity=".8"><g transform="translate(657 318.5)"><path fill="url(#k)" d="M78.3616 90.3707L.1046 45.2044v11.1738l78.257 45.1661z"/><path fill="url(#l)" d="M78.2863 90.2129l78.257-45.1662v11.5992l-78.257 45.1661z"/><mask id="z" fill="#fff"><use xlink:href="#x"/></mask><use fill="url(#n)" xlink:href="#x"/><path fill="#0140BB" d="M78.2569-5.25L0 39.9162l78.2569 45.1662 78.257-45.1662z" filter="url(#y)" mask="url(#z)" opacity=".2495"/></g><path fill="url(#q)" d="M63.9708 26.3896c-.1027-.0592-.2583-.0657-.347-.0144L29.3566 46.1278c-.089.0512-.0778.1409.025.2001l3.3495 1.9308c.1027.0593.2584.0657.3473.0144l34.267-19.7525c.089-.0513.0777-.141-.025-.2002l-3.3497-1.9308zM125.5689 39.8896c-.1027-.0592-.2583-.0657-.3471-.0144l-34.267 19.7526c-.089.0512-.0778.1409.025.2001l3.3495 1.9308c.1027.0593.2583.0657.3473.0144l34.267-19.7525c.089-.0513.0777-.141-.025-.2002l-3.3497-1.9308zM94.0186 41.3896c-.1027-.0592-.2582-.0657-.347-.0144l-34.267 19.7526c-.089.0512-.0778.1409.0249.2001l3.3496 1.9308c.1027.0593.2583.0657.3472.0144l34.267-19.7525c.089-.0513.0778-.141-.0249-.2002l-3.3498-1.9308zM75.652 38.4024c-.0945-.0545-.2378-.0604-.3197-.0132l-15.1813 8.751c-.082.0472-.0716.1298.023.1843l3.0838 1.7776c.0945.0545.2378.0604.3197.0132l15.1813-8.751c.082-.0472.0717-.1298-.023-.1842l-3.0838-1.7777zM95.9343 27.1524c-.0945-.0545-.2378-.0604-.3197-.0132l-15.1813 8.751c-.082.0472-.0716.1298.023.1843L83.54 37.852c.0945.0545.2378.0604.3197.0132l15.1813-8.751c.082-.0472.0716-.1298-.023-.1842l-3.0838-1.7777zM86.92 62.4024c-.0946-.0545-.2379-.0604-.3197-.0132l-15.1814 8.751c-.0819.0472-.0716.1298.023.1843l3.0838 1.7776c.0946.0545.2378.0604.3197.0132l15.1814-8.751c.0819-.0472.0716-.1298-.023-.1842L86.92 62.4024zM113.963 30.1524c-.0945-.0545-.2378-.0604-.3197-.0132l-15.1813 8.751c-.082.0472-.0716.1298.023.1843l3.0838 1.7776c.0945.0545.2378.0604.3197.0132l15.1813-8.751c.082-.0472.0717-.1298-.0229-.1842l-3.0839-1.7777z" transform="translate(657 318.5)"/></g><path fill="url(#k)" d="M78.3616 90.3707L.1046 45.2044v11.1738l78.257 45.1661z" transform="translate(657 296)"/><path fill="url(#l)" d="M78.2863 90.2129l78.257-45.1662v11.5992l-78.257 45.1661z" transform="translate(657 296)"/><path fill="url(#A)" d="M78.2569 0L0 45.1662l78.2569 45.1662 78.257-45.1662z" transform="translate(657 296)"/><path fill="url(#q)" d="M63.9708 26.3896c-.1027-.0592-.2583-.0657-.347-.0144L29.3566 46.1278c-.089.0512-.0778.1409.025.2001l3.3495 1.9308c.1027.0593.2584.0657.3473.0144l34.267-19.7525c.089-.0513.0777-.141-.025-.2002l-3.3497-1.9308zM125.5689 39.8896c-.1027-.0592-.2583-.0657-.3471-.0144l-34.267 19.7526c-.089.0512-.0778.1409.025.2001l3.3495 1.9308c.1027.0593.2583.0657.3473.0144l34.267-19.7525c.089-.0513.0777-.141-.025-.2002l-3.3497-1.9308zM94.0186 41.3896c-.1027-.0592-.2582-.0657-.347-.0144l-34.267 19.7526c-.089.0512-.0778.1409.0249.2001l3.3496 1.9308c.1027.0593.2583.0657.3472.0144l34.267-19.7525c.089-.0513.0778-.141-.0249-.2002l-3.3498-1.9308zM75.652 38.4024c-.0945-.0545-.2378-.0604-.3197-.0132l-15.1813 8.751c-.082.0472-.0716.1298.023.1843l3.0838 1.7776c.0945.0545.2378.0604.3197.0132l15.1813-8.751c.082-.0472.0717-.1298-.023-.1842l-3.0838-1.7777zM95.9343 27.1524c-.0945-.0545-.2378-.0604-.3197-.0132l-15.1813 8.751c-.082.0472-.0716.1298.023.1843L83.54 37.852c.0945.0545.2378.0604.3197.0132l15.1813-8.751c.082-.0472.0716-.1298-.023-.1842l-3.0838-1.7777zM86.92 62.4024c-.0946-.0545-.2379-.0604-.3197-.0132l-15.1814 8.751c-.0819.0472-.0716.1298.023.1843l3.0838 1.7776c.0946.0545.2378.0604.3197.0132l15.1814-8.751c.0819-.0472.0716-.1298-.023-.1842L86.92 62.4024zM113.963 30.1524c-.0945-.0545-.2378-.0604-.3197-.0132l-15.1813 8.751c-.082.0472-.0716.1298.023.1843l3.0838 1.7776c.0945.0545.2378.0604.3197.0132l15.1813-8.751c.082-.0472.0717-.1298-.0229-.1842l-3.0839-1.7777z" transform="translate(657 296)"/><path fill="url(#a)" d="M78.2569-7.5L0 37.6662l78.2569 45.1662 78.257-45.1662z" opacity=".1794" transform="translate(657 296)"/><g><path fill="#0000C7" d="M149 171L2 256.4998 149 342l147-85.5002z" filter="url(#B)" opacity=".4332" transform="translate(419 408)"/><path fill="url(#C)" d="M296.9809 171.9443L148.4423 86.1217v186.19l148.5386 85.8224z" opacity=".883" transform="translate(419 408)"/><path fill="url(#D)" d="M148.9823 85.9443L.4423.1217v186.19l148.54 85.8224z" transform="translate(419 408)"/><path fill="url(#E)" d="M148.5 0L0 85.9998 148.5 172 297 85.9998z" transform="translate(419 408)"/><path fill="navy" d="M104.1764 132L0 192.2216l104.1764 60.2216 104.1764-60.2216z" filter="url(#F)" opacity=".2495" transform="translate(464 297)"/><path fill="url(#k)" d="M104.3157 120.4942L.1393 60.2726v24.8983l104.1764 60.2215z" transform="translate(464 377)"/><path fill="url(#l)" d="M104.2156 120.2839l104.1765-60.2216v25.4655l-104.1765 60.2215z" transform="translate(464 377)"/><path fill="url(#G)" d="M104.1764 0L0 60.2216l104.1764 60.2216 104.1764-60.2216z" transform="translate(464 377)"/><path fill="navy" d="M104.1764 92L0 152.2216l104.1764 60.2216 104.1764-60.2216z" filter="url(#H)" opacity=".2495" transform="translate(464 297)"/><path fill="url(#k)" d="M104.3157 120.4942L.1393 60.2726v24.8983l104.1764 60.2215z" transform="translate(464 337)"/><path fill="url(#l)" d="M104.2156 120.2839l104.1765-60.2216v25.4655l-104.1765 60.2215z" transform="translate(464 337)"/><path fill="url(#G)" d="M104.1764 0L0 60.2216l104.1764 60.2216 104.1764-60.2216z" transform="translate(464 337)"/><path fill="navy" d="M104.1764 52L0 112.2216l104.1764 60.2216 104.1764-60.2216z" filter="url(#I)" opacity=".2495" transform="translate(464 297)"/><path fill="url(#k)" d="M104.3157 120.4942L.1393 60.2726v24.8983l104.1764 60.2215z" transform="translate(464 297)"/><path fill="url(#J)" d="M104.2156 120.2839l104.1765-60.2216v25.4655l-104.1765 60.2215z" transform="translate(464 297)"/><path fill="url(#K)" d="M104.1764 0L0 60.2216l104.1764 60.2216 104.1764-60.2216z" transform="translate(464 297)"/><path fill="url(#a)" d="M104.1764-10L0 50.2216l104.1764 60.2216 104.1764-60.2216z" opacity=".1794" transform="translate(464 297)"/><path fill="url(#a)" d="M104.1764-20L0 40.2216l104.1764 60.2216 104.1764-60.2216z" opacity=".1794" transform="translate(464 297)"/><path fill="url(#a)" d="M104.1764-30L0 30.2216l104.1764 60.2216 104.1764-60.2216z" opacity=".1794" transform="translate(464 297)"/><g fill="url(#L)" transform="translate(514 320)"><path d="M77.1585.1861c-.1366-.0789-.3438-.0875-.462-.0191L31.08 26.5037c-.1184.0683-.1035.1879.0332.2669l4.459 2.5744c.1368.079.344.0875.4623.0192L81.651 3.0275c.1186-.0684.1036-.188-.033-.267L77.1584.1862zM61.1585 30.1861c-.1366-.0789-.3438-.0875-.462-.0191L15.08 56.5037c-.1184.0683-.1035.1879.0332.2669l4.459 2.5744c.1368.079.344.0875.4623.0192L65.651 33.0275c.1186-.0684.1036-.188-.033-.267l-4.4594-2.5744zM101.1585 46.1861c-.1366-.0789-.3438-.0875-.462-.0191L55.08 72.5037c-.1184.0683-.1035.1879.0332.2669l4.459 2.5744c.1368.079.344.0875.4623.0192l45.6165-26.3367c.1186-.0684.1036-.188-.033-.267l-4.4594-2.5744zM20.7087 25.2032c-.1258-.0727-.3165-.0805-.4256-.0176L.0736 36.8536c-.109.063-.0953.173.0305.2457l4.1053 2.3702c.1259.0727.3166.0805.4256.0176l20.2096-11.668c.109-.063.0953-.173-.0306-.2457l-4.1053-2.3702zM110.7087 25.2032c-.1258-.0727-.3165-.0805-.4256-.0176l-20.2095 11.668c-.109.063-.0953.173.0305.2457l4.1053 2.3702c.1259.0727.3166.0805.4256.0176l20.2096-11.668c.109-.063.0953-.173-.0306-.2457l-4.1053-2.3702z"/></g><g><path fill="url(#M)" d="M148.7372 171.8262L.1986 85.9494V272.257l148.5386 85.8766z" opacity=".6" transform="translate(419 222)"/><path fill="url(#N)" d="M148.5944 171.5263l148.5388-85.8768v187.1164l-148.5388 85.8766z" opacity=".4907" transform="translate(419 222)"/><path fill="url(#O)" d="M148.5386 0L0 85.8767l148.5386 85.8768 148.5387-85.8768z" opacity=".6" transform="translate(419 222)"/></g><path fill="url(#P)" d="M148.6793 358.1396l-148.54-85.867v20.5012l148.54 85.8669z" transform="translate(419 222)"/><path fill="url(#Q)" d="M296.6793 358.1396l-148.54-85.867v20.5012l148.54 85.8669z" transform="matrix(-1 0 0 1 863.8186 222)"/></g><g><path fill="#0000C7" d="M104.5 119.5431L1.4027 179.3146 104.5 239.0862l103.0973-59.7716z" filter="url(#R)" opacity=".4332" transform="translate(845.0652 487.0294)"/><path fill="url(#C)" d="M208.2853 120.2033L104.1088 60.2062v130.1622l104.1765 59.9969z" opacity=".883" transform="translate(845.0652 487.0294)"/><path fill="url(#D)" d="M104.4876 60.0822L.3102.0851v130.1622l104.1774 59.9969z" transform="translate(845.0652 487.0294)"/><path fill="url(#E)" d="M104.1493 0L0 60.121l104.1493 60.1212L208.2987 60.121z" transform="translate(845.0652 487.0294)"/><path fill="#0B024C" d="M73.2724 64.3568L0 106.4837l73.2724 42.1268 73.2724-42.1268z" filter="url(#S)" opacity=".2495" transform="translate(876.6256 423.4128)"/><path fill="url(#k)" d="M73.3704 91.2847L.098 49.1578v45.3984l73.2724 42.1267z" transform="translate(876.6256 416.4175)"/><path fill="url(#J)" d="M73.2999 91.1376l73.2725-42.1269v45.7951l-73.2725 42.1268z" transform="translate(876.6256 416.4175)"/><path fill="url(#K)" d="M73.2724 6.9953L0 49.1222 73.2724 91.249l73.2724-42.1268z" transform="translate(876.6256 416.4175)"/><path fill="url(#a)" d="M73.2724 0L0 42.1269l73.2724 42.1268 73.2724-42.1268z" opacity=".1794" transform="translate(876.6256 416.4175)"/><g opacity=".8676"><path fill="#FFF" d="M971.8685 469.6985l-11.2871-2.6078c.3068-1.2214-.1184-2.5402-1.2415-3.7404l9.3493-3.1964c3.2195 3.018 4.3187 6.4642 3.1793 9.5446zm-4.8292 5.1824c-1.972 1.1315-4.32 1.9403-6.8726 2.4366l-4.551-6.4841c.966-.2318 1.8592-.5607 2.6259-1.0007.7676-.4404 1.3409-.9528 1.7448-1.507l11.3001 2.6111c-.8638 1.4643-2.2743 2.812-4.2472 3.944zm-25.6643.9466l5.5698-5.365c2.0918.6444 4.3907.8878 6.5187.7124l4.545 6.4763c-5.3687.6538-11.3744.0233-16.6335-1.8237zm-4.902-2.2059c-3.5975-2.0641-5.8958-4.5553-6.891-7.0883l11.4823-.2028c.527 1.0463 1.5351 2.062 3.0285 2.9189.2563.147.5205.2855.7927.4162l-5.564 5.3577c-.9859-.4251-1.9455-.8835-2.8486-1.4017zm-3.053-16.9844l8.9267 4.9833c-1.2576.9558-1.8134 2.1448-1.6906 3.3683l-11.4757.203c-.6512-3.133.7316-6.2203 4.2396-8.5546zm16.735-3.4795l-.3528 6.5843c-2.1598-.072-4.258.2547-5.9347.9947l-8.9337-4.9873c4.1028-2.1301 9.6196-2.9754 15.2212-2.5917zm-2.6185 14.1157c-1.9882-1.1408-2.2048-2.8723-.483-3.8603 1.7219-.988 4.7401-.8641 6.7285.2767 1.9892 1.1414 2.2052 2.8733.483 3.8613-1.7218.988-4.7393.8636-6.7285-.2777zm17.3084-9.9313c.9032.5182 1.7028 1.0683 2.4438 1.634l-9.3367 3.1922a10.9879 10.9879 0 0 0-.7265-.4544c-1.4932-.857-3.2633-1.4353-5.0862-1.7382l.3546-6.588c4.4126.572 8.7543 1.8907 12.351 3.9544zm11.9603-1.62l-5.281 1.8062c-.966-.7519-2.0407-1.4767-3.2357-2.1622-4.5482-2.6097-10.0505-4.2765-15.6356-4.966l.2029-3.7629-2.3371-.2308-.2024 3.7647c-7.1583-.532-14.2443.5484-19.4336 3.3161l-4.8422-2.7037-1.5023.8944 4.8298 2.6966c-4.5395 2.9536-6.2947 6.9127-5.392 10.9094l-6.5562.1163.4032 1.3405 6.5514-.1156c1.2015 3.2047 4.1065 6.3628 8.6548 8.9725 1.1947.6855 2.4587 1.3019 3.7682 1.8566l-3.1557 3.0388 2.0542.8028 3.1542-3.0379c6.6857 2.3994 14.3852 3.2 21.2135 2.322l2.5915 3.6921 2.1528-.341-2.591-3.692c3.2714-.6117 6.2812-1.6318 8.799-3.0765 2.5179-1.4447 4.2965-3.172 5.3623-5.0493l6.4344 1.487.5946-1.2355-6.4349-1.4869c1.5302-3.918.1351-8.336-4.0467-12.1721l5.2787-1.8049-1.3991-1.1787z"/><path fill="url(#a)" d="M54.4486 23.9007l-11.287-2.6078c.3067-1.2214-.1184-2.5402-1.2415-3.7404l9.3493-3.1964c3.2194 3.018 4.3186 6.4642 3.1792 9.5446zm-4.8292 5.1823c-1.972 1.1316-4.32 1.9404-6.8726 2.4367l-4.5508-6.4841c.9659-.2318 1.859-.5607 2.6258-1.0007.7675-.4404 1.3409-.9529 1.7448-1.507l11.3001 2.611c-.8638 1.4644-2.2743 2.8121-4.2473 3.9441zm-25.6643.9467l5.5698-5.365c2.0918.6444 4.3908.8878 6.5187.7124l4.545 6.4763c-5.3686.6537-11.3744.0232-16.6335-1.8237zm-4.902-2.2059c-3.5974-2.0642-5.8957-4.5553-6.891-7.0883l11.4823-.2029c.5271 1.0464 1.5352 2.0621 3.0286 2.919.2562.147.5204.2855.7927.4162l-5.5641 5.3577c-.9858-.4251-1.9454-.8835-2.8485-1.4017zm-3.0529-16.9844l8.9267 4.9832c-1.2576.9559-1.8134 2.1449-1.6906 3.3684l-11.4758.203c-.6512-3.133.7317-6.2203 4.2397-8.5546zm16.735-3.4795l-.3529 6.5842c-2.1597-.072-4.258.2548-5.9346.9948L17.514 9.9515c4.1028-2.13 9.6196-2.9753 15.2212-2.5916zm-2.6185 14.1157c-1.9882-1.1408-2.2049-2.8723-.483-3.8603 1.7218-.988 4.7401-.8641 6.7284.2767 1.9893 1.1414 2.2052 2.8733.483 3.8613-1.7218.988-4.7393.8636-6.7284-.2777zm17.3084-9.9313c.9031.5182 1.7028 1.0683 2.4437 1.634l-9.3366 3.1922a10.9878 10.9878 0 0 0-.7265-.4545c-1.4932-.8568-3.2633-1.4353-5.0863-1.7382l.3547-6.5879c4.4126.572 8.7543 1.8907 12.351 3.9544zm11.9602-1.62l-5.281 1.8062c-.9659-.7519-2.0407-1.4767-3.2357-2.1622-4.5481-2.6098-10.0505-4.2766-15.6355-4.966L35.436.8394 33.0989.6085l-.2024 3.7648c-7.1583-.532-14.2443.5484-19.4337 3.316L8.6207 4.9858 7.1184 5.88l4.8298 2.6966c-4.5395 2.9535-6.2948 6.9127-5.392 10.9094L0 19.6024l.4031 1.3405 6.5514-.1156c1.2016 3.2047 4.1066 6.3627 8.6548 8.9725 1.1947.6855 2.4588 1.3019 3.7683 1.8566L16.222 34.695l2.0542.8029 3.1542-3.038c6.6857 2.3995 14.3852 3.2 21.2135 2.3222l2.5915 3.692 2.1528-.341-2.591-3.692c3.2714-.6117 6.2812-1.6318 8.799-3.0765 2.5178-1.4447 4.2965-3.172 5.3623-5.0493l6.4344 1.4869.5945-1.2354-6.4348-1.4869c1.5302-3.918.135-8.336-4.0467-12.1722l5.2787-1.8048-1.3992-1.1787z" opacity=".2219" transform="translate(917.4198 442.3002)"/></g><g><path fill="url(#M)" d="M104.3157 120.1207L.1393 60.0858v130.2443l104.1764 60.0348z" opacity=".6" transform="translate(845.0652 357)"/><path fill="url(#N)" d="M104.2156 119.911l104.1765-60.0349v130.8098l-104.1765 60.0348z" opacity=".4907" transform="translate(845.0652 357)"/><path fill="url(#O)" d="M104.1764 0L0 60.0349l104.1764 60.035 104.1764-60.035z" opacity=".6" transform="translate(845.0652 357)"/></g><path fill="url(#P)" d="M104.2751 250.3692L.0977 190.341v14.3321l104.1774 60.028z" transform="translate(845.0652 357)"/><path fill="url(#Q)" d="M208.0737 250.3692L103.8964 190.341v14.3321l104.1773 60.028z" transform="matrix(-1 0 0 1 1157.0353 357)"/><g><path fill="#0000C7" d="M104.5 119.5431L1.4027 179.3146 104.5 239.0862l103.0973-59.7716z" filter="url(#T)" opacity=".4332" transform="translate(741 546.8743)"/><path fill="url(#C)" d="M208.2853 120.2033L104.1088 60.2062v130.1622l104.1765 59.9969z" opacity=".883" transform="translate(741 546.8743)"/><path fill="url(#D)" d="M104.4876 60.0822L.3102.0851v130.1622l104.1774 59.9969z" transform="translate(741 546.8743)"/><path fill="url(#E)" d="M104.1493 0L0 60.121l104.1493 60.1212L208.2987 60.121z" transform="translate(741 546.8743)"/><path fill="navy" d="M73.2724 92.3478L0 134.4792l73.2724 42.1313 73.2724-42.1313z" filter="url(#U)" opacity=".2495" transform="translate(772.5604 469.2761)"/><g transform="translate(772.5604 511.952)"><path fill="url(#k)" d="M73.3704 97.5908L.098 55.4595v17.419l73.2724 42.1312z"/><path fill="url(#l)" d="M73.2999 97.4437l73.2725-42.1314v17.8158l-73.2725 42.1313z"/><mask id="X" fill="#fff"><use xlink:href="#V"/></mask><use fill="url(#G)" xlink:href="#V"/><path fill="navy" d="M73.2724 0L0 42.1313l73.2724 42.1313 73.2724-42.1313z" filter="url(#W)" mask="url(#X)" opacity=".3266"/></g><path fill="url(#k)" d="M73.3704 84.2983L.098 42.167v17.419l73.2724 42.1312z" transform="translate(772.5604 469.2761)"/><path fill="url(#J)" d="M73.2999 84.1512l73.2725-42.1313v17.8158l-73.2725 42.1312z" transform="translate(772.5604 469.2761)"/><path fill="url(#K)" d="M73.2724 0L0 42.1313l73.2724 42.1313 73.2724-42.1313z" transform="translate(772.5604 469.2761)"/><path fill="url(#a)" d="M73.2724-6.996L0 35.1353l73.2724 42.1313 73.2724-42.1313z" opacity=".1794" transform="translate(772.5604 469.2761)"/><g><path fill="url(#M)" d="M104.3157 120.1207L.1393 60.0858v130.2443l104.1764 60.0348z" opacity=".6" transform="translate(741 416.845)"/><path fill="url(#N)" d="M104.2156 119.911l104.1765-60.0349v130.8098l-104.1765 60.0348z" opacity=".4907" transform="translate(741 416.845)"/><path fill="url(#O)" d="M104.1764 0L0 60.0349l104.1764 60.035 104.1764-60.035z" opacity=".6" transform="translate(741 416.845)"/></g><path fill="url(#P)" d="M104.2751 250.3692L.0977 190.341v14.3321l104.1774 60.028z" transform="translate(741 416.845)"/><path fill="url(#Q)" d="M208.0737 250.3692L103.8964 190.341v14.3321l104.1773 60.028z" transform="matrix(-1 0 0 1 1052.97 416.845)"/></g></g><g><path fill="#0000C7" d="M74.5 85.6569L1 128.4852l73.5 42.8286 73.5-42.8286z" filter="url(#Y)" opacity=".4332" transform="translate(289 509.1706)"/><path fill="url(#C)" d="M148.4905 86.1299l-74.2694-42.99v93.2658l74.2694 42.9899z" opacity=".883" transform="translate(289 509.1706)"/><path fill="url(#D)" d="M74.4911 43.051L.2211.061v93.2658l74.27 42.9899z" transform="translate(289 509.1706)"/><path fill="url(#E)" d="M74.25 0L0 43.0788l74.25 43.079 74.25-43.079z" transform="translate(289 509.1706)"/><path fill="#0B024C" d="M52.3374 46.216L0 76.4681l52.3374 30.2522 52.3375-30.2522z" filter="url(#Z)" opacity=".2495" transform="translate(311.5 463.5872)"/><path fill="url(#k)" d="M52.4074 65.5534L.07 35.3013v32.6014l52.3374 30.2522z" transform="translate(311.5 458.5637)"/><path fill="url(#J)" d="M52.3571 65.4478l52.3375-30.2522V68.082L52.3571 98.3342z" transform="translate(311.5 458.5637)"/><path fill="url(#K)" d="M52.3374 5.0235L0 35.2756l52.3374 30.2522 52.3375-30.2522z" transform="translate(311.5 458.5637)"/><path fill="url(#a)" d="M52.3374 0L0 30.2522l52.3374 30.2521 52.3375-30.2521z" opacity=".1794" transform="translate(311.5 458.5637)"/><g opacity=".8676"><path fill="#FFF" d="M379.5306 496.8259l-8.0622-1.8728c.2192-.877-.0845-1.8241-.8867-2.686l6.678-2.2954c2.2997 2.1673 3.0848 4.642 2.271 6.8542zm-3.4494 3.7215c-1.4086.8126-3.0857 1.3934-4.909 1.7498l-3.2506-4.6564c.69-.1664 1.328-.4026 1.8755-.7185.5483-.3163.9578-.6843 1.2463-1.0823l8.0716 1.8751c-.617 1.0516-1.6245 2.0194-3.0338 2.8323zm-18.3316.6798l3.9784-3.8527c1.4941.4627 3.1363.6376 4.6562.5116l3.2464 4.6508c-3.8347.4694-8.1245.0167-11.881-1.3097zm-3.5015-1.584c-2.5696-1.4824-4.2112-3.2714-4.9221-5.0904l8.2016-.1456c.3765.7514 1.0966 1.4808 2.1633 2.0961.183.1056.3717.205.5662.299l-3.9744 3.8474c-.704-.3053-1.3895-.6345-2.0346-1.0066zm-2.1806-12.197l6.3761 3.5786c-.8982.6864-1.2952 1.5403-1.2075 2.419l-8.197.1458c-.4651-2.25.5227-4.467 3.0284-6.1434zm11.9535-2.4986l-.252 4.7282c-1.5427-.0517-3.0415.183-4.239.7144l-6.3813-3.5815c2.9306-1.5297 6.8712-2.1367 10.8723-1.8611zm-1.8703 10.1367c-1.4202-.8192-1.575-2.0626-.345-2.7721 1.2299-.7095 3.3858-.6206 4.806.1987 1.4209.8196 1.5751 2.0633.345 2.7728-1.2299.7095-3.3852.6203-4.806-.1994zm12.3631-7.1319c.6451.3722 1.2163.7673 1.7456 1.1735l-6.6691 2.2923a7.8421 7.8421 0 0 0-.519-.3263c-1.0665-.6153-2.3308-1.0307-3.633-1.2482l.2534-4.731c3.1519.4108 6.253 1.3578 8.8221 2.8397zm8.543-1.1633l-3.772 1.297c-.69-.5399-1.4577-1.0604-2.3113-1.5526-3.2487-1.8742-7.179-3.0711-11.1682-3.5662l.1449-2.7022-1.6694-.1658-.1446 2.7035c-5.113-.382-10.1745.3938-13.8811 2.3814l-3.4587-1.9416-1.073.6423 3.4498 1.9365c-3.2425 2.121-4.4963 4.9641-3.8514 7.8342l-4.683.0835.288.9627 4.6795-.083c.8582 2.3013 2.9333 4.5692 6.182 6.4433.8533.4923 1.7562.935 2.6916 1.3333l-2.254 2.1822 1.4672.5765 2.253-2.1816c4.7755 1.723 10.2751 2.298 15.1525 1.6676l1.851 2.6513 1.5378-.2449-1.8508-2.6513c2.3368-.4393 4.4866-1.1718 6.285-2.2093 1.7985-1.0374 3.069-2.2779 3.8303-3.626l4.596 1.0678.4247-.8872-4.5964-1.0677c1.093-2.8137.0965-5.9863-2.8904-8.7411l3.7705-1.2961-.9995-.8465z"/><path fill="url(#a)" d="M38.8919 17.1636l-8.0622-1.8727c.2191-.8771-.0846-1.8242-.8868-2.6861l6.678-2.2954c2.2997 2.1674 3.0848 4.642 2.271 6.8542zm-3.4494 3.7215c-1.4087.8126-3.0858 1.3934-4.909 1.7498l-3.2507-4.6563c.69-.1665 1.328-.4027 1.8756-.7186.5483-.3163.9578-.6843 1.2463-1.0823l8.0715 1.8751c-.617 1.0516-1.6245 2.0194-3.0337 2.8323zm-18.3317.6799l3.9784-3.8528c1.4942.4628 3.1363.6376 4.6562.5116l3.2465 4.6508c-3.8347.4695-8.1246.0167-11.881-1.3096zm-3.5014-1.5842c-2.5696-1.4823-4.2112-3.2712-4.9222-5.0902l8.2017-.1457c.3765.7514 1.0965 1.4808 2.1632 2.0962.183.1056.3718.205.5662.2989l-3.9743 3.8474c-.7041-.3052-1.3896-.6344-2.0346-1.0066zM11.4287 7.784l6.3762 3.5786c-.8983.6864-1.2953 1.5402-1.2076 2.4188l-8.197.1459c-.465-2.25.5227-4.467 3.0284-6.1433zm11.9536-2.4987l-.252 4.7283c-1.5427-.0517-3.0415.183-4.239.7143L12.51 7.1464c2.9305-1.5296 6.8712-2.1367 10.8723-1.8611zM21.5119 15.422c-1.4201-.8193-1.5749-2.0627-.345-2.7722 1.23-.7095 3.3858-.6205 4.806.1987 1.421.8197 1.5752 2.0634.345 2.7729-1.2298.7095-3.3852.6202-4.806-.1994zM33.8751 8.29c.645.3722 1.2163.7673 1.7455 1.1735l-6.669 2.2924a7.8421 7.8421 0 0 0-.519-.3264c-1.0665-.6153-2.3309-1.0307-3.633-1.2482l.2533-4.731c3.1519.4108 6.2531 1.3578 8.8222 2.8398zm8.543-1.1633l-3.7721 1.297c-.69-.5398-1.4577-1.0604-2.3113-1.5526-3.2486-1.8741-7.1789-3.071-11.1682-3.5662l.145-2.7022L23.642.437l-.1445 2.7036c-5.113-.3821-10.1745.3938-13.8812 2.3813L6.1576 3.5803l-1.073.6423 3.4498 1.9365c-3.2425 2.121-4.4962 4.9642-3.8514 7.8342L0 14.077l.288.9626 4.6795-.083c.8583 2.3014 2.9333 4.5692 6.182 6.4433.8534.4923 1.7563.935 2.6917 1.3333l-2.2541 2.1822 1.4673.5765 2.253-2.1815c4.7754 1.723 10.275 2.2979 15.1525 1.6675l1.851 2.6513 1.5377-.2449-1.8507-2.6513c2.3367-.4392 4.4866-1.1718 6.285-2.2093 1.7985-1.0374 3.069-2.2779 3.8302-3.626l4.596 1.0678.4247-.8872-4.5963-1.0677c1.093-2.8137.0965-5.9863-2.8905-8.7411l3.7705-1.2961-.9994-.8465z" opacity=".2219" transform="translate(340.6388 477.1505)"/></g><g><path fill="url(#M)" d="M74.3686 86.0707L.0993 43.0536v93.3247l74.2693 43.017z" opacity=".6" transform="translate(289 416)"/><path fill="url(#N)" d="M74.2972 85.9205l74.2694-43.0172v93.7299l-74.2694 43.0171z" opacity=".4907" transform="translate(289 416)"/><path fill="url(#O)" d="M74.2693 0L0 43.0172l74.2693 43.0171 74.2693-43.0171z" opacity=".6" transform="translate(289 416)"/></g><path fill="url(#P)" d="M74.3396 179.3984l-74.27-43.0123v10.2694l74.27 43.0122z" transform="translate(289 416)"/><path fill="url(#Q)" d="M148.3396 179.3984l-74.27-43.0123v10.2694l74.27 43.0122z" transform="matrix(-1 0 0 1 511.4093 416)"/><g><path fill="#0000C7" d="M74.5 85.6569L1 128.4852l73.5 42.8286 73.5-42.8286z" filter="url(#aa)" opacity=".4332" transform="translate(289 617.1706)"/><path fill="url(#C)" d="M148.4905 86.1299l-74.2694-42.99v93.2658l74.2694 42.9899z" opacity=".883" transform="translate(289 617.1706)"/><path fill="url(#D)" d="M74.4911 43.051L.2211.061v93.2658l74.27 42.9899z" transform="translate(289 617.1706)"/><path fill="url(#E)" d="M74.25 0L0 43.0788l74.25 43.079 74.25-43.079z" transform="translate(289 617.1706)"/><path fill="navy" d="M52.3374 66.2609L0 96.4907l52.3374 30.2298 52.3375-30.2298z" filter="url(#ab)" opacity=".2495" transform="translate(311.5 561.5688)"/><path fill="url(#k)" d="M52.4074 60.4852L.07 30.2554v12.4984l52.3374 30.2297z" transform="translate(311.5 601.727)"/><path fill="url(#l)" d="M52.3571 60.3797l52.3375-30.2299v12.7831L52.3571 73.1627z" transform="translate(311.5 601.727)"/><path fill="url(#G)" d="M52.3374 0L0 30.2298l52.3374 30.2298 52.3375-30.2298z" transform="translate(311.5 601.727)"/><path fill="navy" d="M52.3374 46.1818L0 76.4116l52.3374 30.2299 52.3375-30.2299z" filter="url(#ac)" opacity=".2495" transform="translate(311.5 561.5688)"/><path fill="url(#k)" d="M52.4074 60.4852L.07 30.2554v12.4984l52.3374 30.2297z" transform="translate(311.5 581.6479)"/><path fill="url(#l)" d="M52.3571 60.3797l52.3375-30.2299v12.7831L52.3571 73.1627z" transform="translate(311.5 581.6479)"/><path fill="url(#G)" d="M52.3374 0L0 30.2298l52.3374 30.2298 52.3375-30.2298z" transform="translate(311.5 581.6479)"/><path fill="navy" d="M52.3374 26.1028L0 56.3326l52.3374 30.2298 52.3375-30.2298z" filter="url(#ad)" opacity=".2495" transform="translate(311.5 561.5688)"/><g><path fill="url(#k)" d="M52.4074 60.4852L.07 30.2554v12.4984l52.3374 30.2297z" transform="translate(311.5 561.5688)"/><path fill="url(#J)" d="M52.3571 60.3797l52.3375-30.2299v12.7831L52.3571 73.1627z" transform="translate(311.5 561.5688)"/><path fill="url(#K)" d="M52.3374 0L0 30.2298l52.3374 30.2298 52.3375-30.2298z" transform="translate(311.5 561.5688)"/></g><path fill="url(#a)" d="M52.3374-5.0198L0 25.2101l52.3374 30.2298 52.3375-30.2298z" opacity=".1794" transform="translate(311.5 561.5688)"/><g><path fill="url(#M)" d="M74.3686 86.0707L.0993 43.0536v93.3247l74.2693 43.017z" opacity=".6" transform="translate(289 524)"/><path fill="url(#N)" d="M74.2972 85.9205l74.2694-43.0172v93.7299l-74.2694 43.0171z" opacity=".4907" transform="translate(289 524)"/><path fill="url(#O)" d="M74.2693 0L0 43.0172l74.2693 43.0171 74.2693-43.0171z" opacity=".6" transform="translate(289 524)"/></g><path fill="url(#P)" d="M74.3396 179.3984l-74.27-43.0123v10.2694l74.27 43.0122z" transform="translate(289 524)"/><path fill="url(#Q)" d="M148.3396 179.3984l-74.27-43.0123v10.2694l74.27 43.0122z" transform="matrix(-1 0 0 1 511.4093 524)"/></g><g><path fill="#0000C7" d="M74.5 85.6569L1 128.4852l73.5 42.8286 73.5-42.8286z" filter="url(#ae)" opacity=".4332" transform="translate(215 481.1706)"/><path fill="url(#C)" d="M148.4905 86.1299l-74.2694-42.99v93.2658l74.2694 42.9899z" opacity=".883" transform="translate(215 481.1706)"/><path fill="url(#D)" d="M74.4911 43.051L.2211.061v93.2658l74.27 42.9899z" transform="translate(215 481.1706)"/><path fill="url(#E)" d="M74.25 0L0 43.0788l74.25 43.079 74.25-43.079z" transform="translate(215 481.1706)"/><g opacity=".2"><path fill="#0B024C" d="M52.3374 17.5L0 47.6108l52.3374 30.1108 52.3375-30.1108z" filter="url(#af)" opacity=".2495" transform="translate(237.5 481.5615)"/><g transform="translate(237.5 481.5615)"><path fill="url(#k)" d="M52.4074 60.2471L.07 30.1363v7.4491l52.3374 30.1108z"/><path fill="url(#l)" d="M52.3571 60.1419l52.3375-30.1108v7.7328L52.3571 67.8747z"/><mask id="ai" fill="#fff"><use xlink:href="#ag"/></mask><use fill="url(#n)" xlink:href="#ag"/><path fill="#0140BB" d="M52.3374-3.5L0 26.6108l52.3374 30.1108 52.3375-30.1108z" filter="url(#ah)" mask="url(#ai)" opacity=".2495"/></g><path fill="url(#q)" d="M42.783 17.593c-.0687-.0394-.1727-.0437-.2321-.0095L19.6335 30.7518c-.0595.0342-.052.094.0166.1335l2.2402 1.2872c.0687.0395.1728.0438.2323.0096l22.9173-13.1684c.0596-.0342.052-.094-.0166-.1334L42.783 17.593zM83.9792 26.593c-.0687-.0394-.1728-.0437-.2321-.0095L60.8296 39.7518c-.0595.0342-.052.094.0167.1335l2.2402 1.2872c.0687.0395.1727.0438.2322.0096l22.9174-13.1684c.0596-.0342.052-.094-.0166-.1334l-2.2403-1.2872zM62.8787 27.593c-.0687-.0394-.1727-.0437-.2321-.0095L39.729 40.7518c-.0594.0342-.052.094.0167.1335l2.2402 1.2872c.0687.0395.1728.0438.2323.0096l22.9173-13.1684c.0596-.0342.052-.094-.0166-.1334l-2.2403-1.2872zM50.5953 25.6016c-.0632-.0363-.159-.0403-.2138-.0088l-10.1531 5.834c-.0548.0315-.048.0865.0153.1228l2.0625 1.1851c.0632.0364.159.0403.2138.0089l10.1531-5.834c.0548-.0315.0479-.0866-.0153-.1229l-2.0625-1.1851zM64.1599 18.1016c-.0632-.0363-.159-.0403-.2138-.0088l-10.1532 5.834c-.0547.0315-.0478.0865.0154.1228l2.0625 1.1851c.0632.0364.159.0403.2138.0089l10.1531-5.834c.0548-.0315.0479-.0866-.0153-.1229l-2.0625-1.1851zM58.1312 41.6016c-.0633-.0363-.159-.0403-.2138-.0088l-10.1532 5.834c-.0547.0315-.0478.0865.0154.1228l2.0624 1.1851c.0633.0364.159.0403.2139.0089l10.153-5.834c.0549-.0315.048-.0866-.0153-.1229l-2.0624-1.1851zM76.2173 20.1016c-.0632-.0363-.159-.0403-.2138-.0088l-10.1531 5.834c-.0548.0315-.048.0865.0153.1228l2.0625 1.1851c.0632.0364.159.0403.2138.0089l10.1531-5.834c.0548-.0315.048-.0866-.0153-.1229l-2.0625-1.1851z" transform="translate(237.5 481.5615)"/></g><g opacity=".4"><g transform="translate(237.5 466.5615)"><path fill="url(#k)" d="M52.4074 60.2471L.07 30.1363v7.4491l52.3374 30.1108z"/><path fill="url(#l)" d="M52.3571 60.1419l52.3375-30.1108v7.7328L52.3571 67.8747z"/><mask id="al" fill="#fff"><use xlink:href="#aj"/></mask><use fill="url(#n)" xlink:href="#aj"/><path fill="#0140BB" d="M52.3374-3.5L0 26.6108l52.3374 30.1108 52.3375-30.1108z" filter="url(#ak)" mask="url(#al)" opacity=".2495"/></g><path fill="url(#q)" d="M42.783 17.593c-.0687-.0394-.1727-.0437-.2321-.0095L19.6335 30.7518c-.0595.0342-.052.094.0166.1335l2.2402 1.2872c.0687.0395.1728.0438.2323.0096l22.9173-13.1684c.0596-.0342.052-.094-.0166-.1334L42.783 17.593zM83.9792 26.593c-.0687-.0394-.1728-.0437-.2321-.0095L60.8296 39.7518c-.0595.0342-.052.094.0167.1335l2.2402 1.2872c.0687.0395.1727.0438.2322.0096l22.9174-13.1684c.0596-.0342.052-.094-.0166-.1334l-2.2403-1.2872zM62.8787 27.593c-.0687-.0394-.1727-.0437-.2321-.0095L39.729 40.7518c-.0594.0342-.052.094.0167.1335l2.2402 1.2872c.0687.0395.1728.0438.2323.0096l22.9173-13.1684c.0596-.0342.052-.094-.0166-.1334l-2.2403-1.2872zM50.5953 25.6016c-.0632-.0363-.159-.0403-.2138-.0088l-10.1531 5.834c-.0548.0315-.048.0865.0153.1228l2.0625 1.1851c.0632.0364.159.0403.2138.0089l10.1531-5.834c.0548-.0315.0479-.0866-.0153-.1229l-2.0625-1.1851zM64.1599 18.1016c-.0632-.0363-.159-.0403-.2138-.0088l-10.1532 5.834c-.0547.0315-.0478.0865.0154.1228l2.0625 1.1851c.0632.0364.159.0403.2138.0089l10.1531-5.834c.0548-.0315.0479-.0866-.0153-.1229l-2.0625-1.1851zM58.1312 41.6016c-.0633-.0363-.159-.0403-.2138-.0088l-10.1532 5.834c-.0547.0315-.0478.0865.0154.1228l2.0624 1.1851c.0633.0364.159.0403.2139.0089l10.153-5.834c.0549-.0315.048-.0866-.0153-.1229l-2.0624-1.1851zM76.2173 20.1016c-.0632-.0363-.159-.0403-.2138-.0088l-10.1531 5.834c-.0548.0315-.048.0865.0153.1228l2.0625 1.1851c.0632.0364.159.0403.2138.0089l10.1531-5.834c.0548-.0315.048-.0866-.0153-.1229l-2.0625-1.1851z" transform="translate(237.5 466.5615)"/></g><g opacity=".6"><g transform="translate(237.5 451.5615)"><path fill="url(#k)" d="M52.4074 60.2471L.07 30.1363v7.4491l52.3374 30.1108z"/><path fill="url(#l)" d="M52.3571 60.1419l52.3375-30.1108v7.7328L52.3571 67.8747z"/><mask id="ao" fill="#fff"><use xlink:href="#am"/></mask><use fill="url(#n)" xlink:href="#am"/><path fill="#0140BB" d="M52.3374-3.5L0 26.6108l52.3374 30.1108 52.3375-30.1108z" filter="url(#an)" mask="url(#ao)" opacity=".2495"/></g><path fill="url(#q)" d="M42.783 17.593c-.0687-.0394-.1727-.0437-.2321-.0095L19.6335 30.7518c-.0595.0342-.052.094.0166.1335l2.2402 1.2872c.0687.0395.1728.0438.2323.0096l22.9173-13.1684c.0596-.0342.052-.094-.0166-.1334L42.783 17.593zM83.9792 26.593c-.0687-.0394-.1728-.0437-.2321-.0095L60.8296 39.7518c-.0595.0342-.052.094.0167.1335l2.2402 1.2872c.0687.0395.1727.0438.2322.0096l22.9174-13.1684c.0596-.0342.052-.094-.0166-.1334l-2.2403-1.2872zM62.8787 27.593c-.0687-.0394-.1727-.0437-.2321-.0095L39.729 40.7518c-.0594.0342-.052.094.0167.1335l2.2402 1.2872c.0687.0395.1728.0438.2323.0096l22.9173-13.1684c.0596-.0342.052-.094-.0166-.1334l-2.2403-1.2872zM50.5953 25.6016c-.0632-.0363-.159-.0403-.2138-.0088l-10.1531 5.834c-.0548.0315-.048.0865.0153.1228l2.0625 1.1851c.0632.0364.159.0403.2138.0089l10.1531-5.834c.0548-.0315.0479-.0866-.0153-.1229l-2.0625-1.1851zM64.1599 18.1016c-.0632-.0363-.159-.0403-.2138-.0088l-10.1532 5.834c-.0547.0315-.0478.0865.0154.1228l2.0625 1.1851c.0632.0364.159.0403.2138.0089l10.1531-5.834c.0548-.0315.0479-.0866-.0153-.1229l-2.0625-1.1851zM58.1312 41.6016c-.0633-.0363-.159-.0403-.2138-.0088l-10.1532 5.834c-.0547.0315-.0478.0865.0154.1228l2.0624 1.1851c.0633.0364.159.0403.2139.0089l10.153-5.834c.0549-.0315.048-.0866-.0153-.1229l-2.0624-1.1851zM76.2173 20.1016c-.0632-.0363-.159-.0403-.2138-.0088l-10.1531 5.834c-.0548.0315-.048.0865.0153.1228l2.0625 1.1851c.0632.0364.159.0403.2138.0089l10.1531-5.834c.0548-.0315.048-.0866-.0153-.1229l-2.0625-1.1851z" transform="translate(237.5 451.5615)"/></g><g opacity=".8"><g transform="translate(237.5 436.5615)"><path fill="url(#k)" d="M52.4074 60.2471L.07 30.1363v7.4491l52.3374 30.1108z"/><path fill="url(#l)" d="M52.3571 60.1419l52.3375-30.1108v7.7328L52.3571 67.8747z"/><mask id="ar" fill="#fff"><use xlink:href="#ap"/></mask><use fill="url(#n)" xlink:href="#ap"/><path fill="#0140BB" d="M52.3374-3.5L0 26.6108l52.3374 30.1108 52.3375-30.1108z" filter="url(#aq)" mask="url(#ar)" opacity=".2495"/></g><path fill="url(#q)" d="M42.783 17.593c-.0687-.0394-.1727-.0437-.2321-.0095L19.6335 30.7518c-.0595.0342-.052.094.0166.1335l2.2402 1.2872c.0687.0395.1728.0438.2323.0096l22.9173-13.1684c.0596-.0342.052-.094-.0166-.1334L42.783 17.593zM83.9792 26.593c-.0687-.0394-.1728-.0437-.2321-.0095L60.8296 39.7518c-.0595.0342-.052.094.0167.1335l2.2402 1.2872c.0687.0395.1727.0438.2322.0096l22.9174-13.1684c.0596-.0342.052-.094-.0166-.1334l-2.2403-1.2872zM62.8787 27.593c-.0687-.0394-.1727-.0437-.2321-.0095L39.729 40.7518c-.0594.0342-.052.094.0167.1335l2.2402 1.2872c.0687.0395.1728.0438.2323.0096l22.9173-13.1684c.0596-.0342.052-.094-.0166-.1334l-2.2403-1.2872zM50.5953 25.6016c-.0632-.0363-.159-.0403-.2138-.0088l-10.1531 5.834c-.0548.0315-.048.0865.0153.1228l2.0625 1.1851c.0632.0364.159.0403.2138.0089l10.1531-5.834c.0548-.0315.0479-.0866-.0153-.1229l-2.0625-1.1851zM64.1599 18.1016c-.0632-.0363-.159-.0403-.2138-.0088l-10.1532 5.834c-.0547.0315-.0478.0865.0154.1228l2.0625 1.1851c.0632.0364.159.0403.2138.0089l10.1531-5.834c.0548-.0315.0479-.0866-.0153-.1229l-2.0625-1.1851zM58.1312 41.6016c-.0633-.0363-.159-.0403-.2138-.0088l-10.1532 5.834c-.0547.0315-.0478.0865.0154.1228l2.0624 1.1851c.0633.0364.159.0403.2139.0089l10.153-5.834c.0549-.0315.048-.0866-.0153-.1229l-2.0624-1.1851zM76.2173 20.1016c-.0632-.0363-.159-.0403-.2138-.0088l-10.1531 5.834c-.0548.0315-.048.0865.0153.1228l2.0625 1.1851c.0632.0364.159.0403.2138.0089l10.1531-5.834c.0548-.0315.048-.0866-.0153-.1229l-2.0625-1.1851z" transform="translate(237.5 436.5615)"/></g><path fill="url(#k)" d="M52.4074 60.2471L.07 30.1363v7.4491l52.3374 30.1108z" transform="translate(237.5 421.5615)"/><path fill="url(#l)" d="M52.3571 60.1419l52.3375-30.1108v7.7328L52.3571 67.8747z" transform="translate(237.5 421.5615)"/><path fill="url(#A)" d="M52.3374 0L0 30.1108l52.3374 30.1108 52.3375-30.1108z" transform="translate(237.5 421.5615)"/><path fill="url(#q)" d="M42.783 17.593c-.0687-.0394-.1727-.0437-.2321-.0095L19.6335 30.7518c-.0595.0342-.052.094.0166.1335l2.2402 1.2872c.0687.0395.1728.0438.2323.0096l22.9173-13.1684c.0596-.0342.052-.094-.0166-.1334L42.783 17.593zM83.9792 26.593c-.0687-.0394-.1728-.0437-.2321-.0095L60.8296 39.7518c-.0595.0342-.052.094.0167.1335l2.2402 1.2872c.0687.0395.1727.0438.2322.0096l22.9174-13.1684c.0596-.0342.052-.094-.0166-.1334l-2.2403-1.2872zM62.8787 27.593c-.0687-.0394-.1727-.0437-.2321-.0095L39.729 40.7518c-.0594.0342-.052.094.0167.1335l2.2402 1.2872c.0687.0395.1728.0438.2323.0096l22.9173-13.1684c.0596-.0342.052-.094-.0166-.1334l-2.2403-1.2872zM50.5953 25.6016c-.0632-.0363-.159-.0403-.2138-.0088l-10.1531 5.834c-.0548.0315-.048.0865.0153.1228l2.0625 1.1851c.0632.0364.159.0403.2138.0089l10.1531-5.834c.0548-.0315.0479-.0866-.0153-.1229l-2.0625-1.1851zM64.1599 18.1016c-.0632-.0363-.159-.0403-.2138-.0088l-10.1532 5.834c-.0547.0315-.0478.0865.0154.1228l2.0625 1.1851c.0632.0364.159.0403.2138.0089l10.1531-5.834c.0548-.0315.0479-.0866-.0153-.1229l-2.0625-1.1851zM58.1312 41.6016c-.0633-.0363-.159-.0403-.2138-.0088l-10.1532 5.834c-.0547.0315-.0478.0865.0154.1228l2.0624 1.1851c.0633.0364.159.0403.2139.0089l10.153-5.834c.0549-.0315.048-.0866-.0153-.1229l-2.0624-1.1851zM76.2173 20.1016c-.0632-.0363-.159-.0403-.2138-.0088l-10.1531 5.834c-.0548.0315-.048.0865.0153.1228l2.0625 1.1851c.0632.0364.159.0403.2138.0089l10.1531-5.834c.0548-.0315.048-.0866-.0153-.1229l-2.0625-1.1851z" transform="translate(237.5 421.5615)"/><path fill="url(#a)" d="M52.3374-5L0 25.1108l52.3374 30.1108 52.3375-30.1108z" opacity=".1794" transform="translate(237.5 421.5615)"/><g><path fill="url(#M)" d="M74.3686 86.0707L.0993 43.0536v93.3247l74.2693 43.017z" opacity=".6" transform="translate(215 388)"/><path fill="url(#N)" d="M74.2972 85.9205l74.2694-43.0172v93.7299l-74.2694 43.0171z" opacity=".4907" transform="translate(215 388)"/><path fill="url(#O)" d="M74.2693 0L0 43.0172l74.2693 43.0171 74.2693-43.0171z" opacity=".6" transform="translate(215 388)"/></g><path fill="url(#P)" d="M74.3396 179.3984l-74.27-43.0123v10.2694l74.27 43.0122z" transform="translate(215 388)"/><path fill="url(#Q)" d="M148.3396 179.3984l-74.27-43.0123v10.2694l74.27 43.0122z" transform="matrix(-1 0 0 1 437.4093 388)"/></g></g><g><path fill="#0000C7" d="M36.5 42.044L.4899 63.066 36.5 84.0881 72.5101 63.066z" filter="url(#as)" opacity=".4332" transform="translate(401 190.7321)"/><path fill="url(#C)" d="M72.7504 42.2762l-36.387-21.1013v45.7788l36.387 21.1013z" opacity=".883" transform="translate(401 190.7321)"/><path fill="url(#D)" d="M36.4957 21.1313L.1083.0299v45.7788L36.4957 66.91z" transform="translate(401 190.7321)"/><path fill="url(#E)" d="M36.3775 0L0 21.1449l36.3775 21.145 36.3775-21.145z" transform="translate(401 190.7321)"/><path fill="#0B024C" d="M25.421 22.4601L0 37.1621l25.421 14.702 25.4211-14.702z" filter="url(#at)" opacity=".2495" transform="translate(412.0235 168.3578)"/><path fill="url(#k)" d="M25.455 31.8577L.034 17.1558v15.8437l25.421 14.7019z" transform="translate(412.0235 165.9165)"/><path fill="url(#J)" d="M25.4306 31.8064l25.4211-14.702v15.9822l-25.4211 14.702z" transform="translate(412.0235 165.9165)"/><path fill="url(#K)" d="M25.421 2.4413L0 17.1433l25.421 14.702 25.4211-14.702z" transform="translate(412.0235 165.9165)"/><path fill="url(#a)" d="M25.421 0L0 14.702l25.421 14.702 25.4211-14.702z" opacity=".1794" transform="translate(412.0235 165.9165)"/><g opacity=".8676"><path fill="#FFF" d="M445.067 184.5112l-3.916-.9101c.1065-.4263-.041-.8865-.4307-1.3054l3.2436-1.1155c1.117 1.0533 1.4983 2.256 1.103 3.331zm-1.6755 1.8086c-.6842.3949-1.4988.6771-2.3844.8504l-1.5788-2.263c.335-.0808.645-.1956.911-.3492.2663-.1537.4652-.3325.6053-.526l3.9205.9113c-.2997.511-.789.9814-1.4736 1.3765zm-8.904.3304l1.9324-1.8724c.7258.2249 1.5234.3099 2.2616.2486l1.5769 2.2602c-1.8626.2282-3.9462.0081-5.7708-.6364zm-1.7006-.7699c-1.2481-.7204-2.0455-1.5898-2.3908-2.4738l3.9837-.0707c.1828.3651.5326.7196 1.0507 1.0186.0889.0514.1806.0997.275.1453l-1.9304 1.8698c-.342-.1484-.675-.3083-.9882-.4892zm-1.0592-5.9274l3.097 1.7391c-.4363.3336-.6291.7485-.5865 1.1755l-3.9814.0709c-.226-1.0934.2538-2.1709 1.4709-2.9855zm5.806-1.2143l-.1224 2.2978c-.7493-.0251-1.4773.089-2.059.3472l-3.0994-1.7406c1.4234-.7434 3.3374-1.0384 5.2808-.9044zm-.9085 4.9262c-.6897-.3981-.765-1.0024-.1675-1.3472.5974-.3448 1.6445-.3015 2.3343.0966.6902.3983.7651 1.0027.1676 1.3475-.5974.3448-1.6442.3015-2.3344-.0969zm6.005-3.466c.3133.181.5908.373.8478.5703l-3.2392 1.114a3.8087 3.8087 0 0 0-.252-.1585c-.5181-.299-1.1322-.501-1.7647-.6066l.123-2.2992c1.531.1996 3.0373.6599 4.2851 1.38zm4.1495-.5653l-1.8322.6304c-.3351-.2624-.708-.5154-1.1226-.7546-1.578-.9108-3.487-1.4925-5.4246-1.7331l.0704-1.3132-.8108-.0806-.0702 1.3139c-2.4835-.1857-4.942.1913-6.7423 1.1572l-1.68-.9435-.5212.3121 1.6757.9411c-1.575 1.0308-2.184 2.4125-1.8707 3.8073l-2.2746.0406.1399.4678 2.2729-.0403c.4169 1.1184 1.4247 2.2205 3.0027 3.1313.4145.2393.853.4544 1.3073.648l-1.0948 1.0605.7127.2802 1.0943-1.0602c2.3195.8373 4.9908 1.1167 7.3598.8103l.899 1.2885.747-.119-.899-1.2885c1.135-.2134 2.1792-.5694 3.0528-1.0736.8735-.5042 1.4906-1.107 1.8604-1.7622l2.2323.519.2063-.4312-2.2325-.519c.5309-1.3673.0468-2.9091-1.404-4.248l1.8314-.6298-.4854-.4114z"/><path fill="url(#a)" d="M18.8903 8.3412l-3.9159-.9101c.1065-.4263-.041-.8865-.4307-1.3054l3.2436-1.1155c1.117 1.0533 1.4983 2.256 1.103 3.331zm-1.6754 1.8086c-.6842.3949-1.4988.6771-2.3844.8504l-1.5788-2.263c.335-.0808.645-.1956.911-.3492.2663-.1537.4652-.3325.6053-.526l3.9205.9113c-.2997.511-.789.9814-1.4736 1.3765zm-8.904.3304l1.9324-1.8724c.7258.2249 1.5234.3099 2.2616.2486l1.5769 2.2602c-1.8626.2282-3.9462.0081-5.7708-.6364zm-1.7006-.7699C5.3622 8.99 4.5648 8.1205 4.2195 7.2365l3.9837-.0707c.1828.3651.5326.7196 1.0507 1.0186.0889.0514.1806.0997.275.1453l-1.9304 1.8698c-.342-.1484-.675-.3083-.9882-.4892zM5.551 3.783l3.097 1.739c-.4363.3337-.6291.7486-.5865 1.1756l-3.9814.0709c-.226-1.0934.2538-2.1709 1.4709-2.9855zm5.806-1.2143l-.1224 2.2978c-.7493-.0251-1.4773.089-2.059.3472L6.0763 3.473c1.4234-.7434 3.3374-1.0384 5.2808-.9044zm-.9085 4.9262c-.6897-.3981-.765-1.0024-.1675-1.3472.5974-.3448 1.6445-.3016 2.3343.0966.6902.3983.7651 1.0027.1676 1.3475-.5974.3448-1.6442.3015-2.3344-.0969zm6.005-3.466c.3133.181.5908.373.8478.5703l-3.2392 1.114a3.8087 3.8087 0 0 0-.252-.1585c-.5181-.299-1.1322-.501-1.7647-.6066l.123-2.2992c1.531.1996 3.0373.6599 4.2851 1.38zm4.1495-.5653l-1.8322.6304c-.3351-.2624-.708-.5154-1.1226-.7546-1.578-.9108-3.487-1.4925-5.4246-1.7331l.0704-1.3133-.8108-.0805-.0702 1.3139c-2.4835-.1857-4.942.1913-6.7423 1.1572l-1.68-.9435-.5212.3121 1.6757.9411c-1.575 1.0308-2.184 2.4125-1.8707 3.8073L0 6.8411l.1399.4678 2.2729-.0403c.4169 1.1184 1.4247 2.2205 3.0027 3.1313.4145.2393.853.4544 1.3073.648L5.628 12.1084l.7127.2801 1.0943-1.0601c2.3195.8373 4.9908 1.1167 7.3598.8103l.899 1.2885.747-.119-.899-1.2885c1.135-.2134 2.1792-.5695 3.0528-1.0736.8735-.5042 1.4906-1.107 1.8604-1.7622l2.2323.519.2063-.4312-2.2325-.519c.5309-1.3673.0468-2.9091-1.404-4.248l1.8314-.6298-.4854-.4114z" opacity=".2219" transform="translate(426.1766 174.9493)"/></g><g><path fill="url(#M)" d="M36.4356 42.2472L.0487 21.1325v45.8077l36.3869 21.1147z" opacity=".6" transform="translate(401 145)"/><path fill="url(#N)" d="M36.4007 42.1734l36.387-21.1146v46.0066L36.4007 88.18z" opacity=".4907" transform="translate(401 145)"/><path fill="url(#O)" d="M36.387 0L0 21.1146l36.387 21.1147 36.387-21.1147z" opacity=".6" transform="translate(401 145)"/></g><path fill="url(#P)" d="M36.4214 88.0563L.0341 66.9441v5.0407L36.4214 93.097z" transform="translate(401 145)"/><path fill="url(#Q)" d="M72.6765 88.0563L36.2892 66.9441v5.0407L72.6765 93.097z" transform="matrix(-1 0 0 1 509.9656 145)"/><g><path fill="#0000C7" d="M36.5 42.044L.4899 63.066 36.5 84.0881 72.5101 63.066z" filter="url(#au)" opacity=".4332" transform="translate(365 211.7321)"/><path fill="url(#C)" d="M72.7504 42.2762l-36.387-21.1013v45.7788l36.387 21.1013z" opacity=".883" transform="translate(365 211.7321)"/><path fill="url(#D)" d="M36.4957 21.1313L.1083.0299v45.7788L36.4957 66.91z" transform="translate(365 211.7321)"/><path fill="url(#E)" d="M36.3775 0L0 21.1449l36.3775 21.145 36.3775-21.145z" transform="translate(365 211.7321)"/><path fill="navy" d="M25.421 32.3478L0 47.1057l25.421 14.7579 25.4211-14.7579z" filter="url(#av)" opacity=".2495" transform="translate(376.0235 184.4404)"/><path fill="url(#k)" d="M25.455 29.5282L.034 14.7704v6.1015l25.421 14.7579z" transform="translate(376.0235 204.0451)"/><path fill="url(#l)" d="M25.4306 29.4767l25.4211-14.7579v6.2406L25.4306 35.7172z" transform="translate(376.0235 204.0451)"/><path fill="url(#G)" d="M25.421 0L0 14.7579l25.421 14.7578 25.4211-14.7578z" transform="translate(376.0235 204.0451)"/><path fill="navy" d="M25.421 22.5455L0 37.3033l25.421 14.7579 25.4211-14.7579z" filter="url(#aw)" opacity=".2495" transform="translate(376.0235 184.4404)"/><path fill="url(#k)" d="M25.455 29.5282L.034 14.7704v6.1015l25.421 14.7579z" transform="translate(376.0235 194.2427)"/><path fill="url(#l)" d="M25.4306 29.4767l25.4211-14.7579v6.2406L25.4306 35.7172z" transform="translate(376.0235 194.2427)"/><path fill="url(#G)" d="M25.421 0L0 14.7579l25.421 14.7578 25.4211-14.7578z" transform="translate(376.0235 194.2427)"/><path fill="navy" d="M25.421 12.7431L0 27.5009l25.421 14.7579 25.4211-14.7579z" filter="url(#ax)" opacity=".2495" transform="translate(376.0235 184.4404)"/><g><path fill="url(#k)" d="M25.455 29.5282L.034 14.7704v6.1015l25.421 14.7579z" transform="translate(376.0235 184.4404)"/><path fill="url(#J)" d="M25.4306 29.4767l25.4211-14.7579v6.2406L25.4306 35.7172z" transform="translate(376.0235 184.4404)"/><path fill="url(#K)" d="M25.421 0L0 14.7579l25.421 14.7578 25.4211-14.7578z" transform="translate(376.0235 184.4404)"/></g><path fill="url(#a)" d="M25.421-2.4506L0 12.3073l25.421 14.7578 25.4211-14.7578z" opacity=".1794" transform="translate(376.0235 184.4404)"/><g><path fill="url(#M)" d="M36.4356 42.2472L.0487 21.1325v45.8077l36.3869 21.1147z" opacity=".6" transform="translate(365 166)"/><path fill="url(#N)" d="M36.4007 42.1734l36.387-21.1146v46.0066L36.4007 88.18z" opacity=".4907" transform="translate(365 166)"/><path fill="url(#O)" d="M36.387 0L0 21.1146l36.387 21.1147 36.387-21.1147z" opacity=".6" transform="translate(365 166)"/></g><path fill="url(#P)" d="M36.4214 88.0563L.0341 66.9441v5.0407L36.4214 93.097z" transform="translate(365 166)"/><path fill="url(#Q)" d="M72.6765 88.0563L36.2892 66.9441v5.0407L72.6765 93.097z" transform="matrix(-1 0 0 1 473.9656 166)"/></g><g><path fill="#0000C7" d="M36.5 42.044L.4899 63.066 36.5 84.0881 72.5101 63.066z" filter="url(#ay)" opacity=".4332" transform="translate(329 232.7321)"/><path fill="url(#C)" d="M72.7504 42.2762l-36.387-21.1013v45.7788l36.387 21.1013z" opacity=".883" transform="translate(329 232.7321)"/><path fill="url(#D)" d="M36.4957 21.1313L.1083.0299v45.7788L36.4957 66.91z" transform="translate(329 232.7321)"/><path fill="url(#E)" d="M36.3775 0L0 21.1449l36.3775 21.145 36.3775-21.145z" transform="translate(329 232.7321)"/><path fill="#0B024C" d="M25.421 22.4601L0 37.1621l25.421 14.702 25.4211-14.702z" filter="url(#az)" opacity=".2495" transform="translate(340.0235 210.3578)"/><path fill="url(#k)" d="M25.455 31.8577L.034 17.1558v15.8437l25.421 14.7019z" transform="translate(340.0235 207.9165)"/><path fill="url(#J)" d="M25.4306 31.8064l25.4211-14.702v15.9822l-25.4211 14.702z" transform="translate(340.0235 207.9165)"/><path fill="url(#K)" d="M25.421 2.4413L0 17.1433l25.421 14.702 25.4211-14.702z" transform="translate(340.0235 207.9165)"/><path fill="url(#a)" d="M25.421 0L0 14.702l25.421 14.702 25.4211-14.702z" opacity=".1794" transform="translate(340.0235 207.9165)"/><g opacity=".8676"><path fill="#FFF" d="M373.067 226.5112l-3.916-.9101c.1065-.4263-.041-.8865-.4307-1.3054l3.2436-1.1155c1.117 1.0533 1.4983 2.256 1.103 3.331zm-1.6755 1.8086c-.6842.3949-1.4988.6771-2.3844.8504l-1.5788-2.263c.335-.0808.645-.1956.911-.3492.2663-.1537.4652-.3325.6053-.526l3.9205.9113c-.2997.511-.789.9814-1.4736 1.3765zm-8.904.3304l1.9324-1.8724c.7258.2249 1.5234.3099 2.2616.2486l1.5769 2.2602c-1.8626.2282-3.9462.0081-5.7708-.6364zm-1.7006-.7699c-1.2481-.7204-2.0455-1.5898-2.3908-2.4738l3.9837-.0707c.1828.3651.5326.7196 1.0507 1.0186.0889.0514.1806.0997.275.1453l-1.9304 1.8698c-.342-.1484-.675-.3083-.9882-.4892zm-1.0592-5.9274l3.097 1.7391c-.4363.3336-.6291.7485-.5865 1.1755l-3.9814.0709c-.226-1.0934.2538-2.1709 1.4709-2.9855zm5.806-1.2143l-.1224 2.2978c-.7493-.0251-1.4773.089-2.059.3472l-3.0994-1.7406c1.4234-.7434 3.3374-1.0384 5.2808-.9044zm-.9085 4.9262c-.6897-.3981-.765-1.0024-.1675-1.3472.5974-.3448 1.6445-.3015 2.3343.0966.6902.3983.7651 1.0027.1676 1.3475-.5974.3448-1.6442.3015-2.3344-.0969zm6.005-3.466c.3133.181.5908.373.8478.5703l-3.2392 1.114a3.8087 3.8087 0 0 0-.252-.1585c-.5181-.299-1.1322-.501-1.7647-.6066l.123-2.2992c1.531.1996 3.0373.6599 4.2851 1.38zm4.1495-.5653l-1.8322.6304c-.3351-.2624-.708-.5154-1.1226-.7546-1.578-.9108-3.487-1.4925-5.4246-1.7331l.0704-1.3132-.8108-.0806-.0702 1.3139c-2.4835-.1857-4.942.1913-6.7423 1.1572l-1.68-.9435-.5212.3121 1.6757.9411c-1.575 1.0308-2.184 2.4125-1.8707 3.8073l-2.2746.0406.1399.4678 2.2729-.0403c.4169 1.1184 1.4247 2.2205 3.0027 3.1313.4145.2393.853.4544 1.3073.648l-1.0948 1.0605.7127.2802 1.0943-1.0602c2.3195.8373 4.9908 1.1167 7.3598.8103l.899 1.2885.747-.119-.899-1.2885c1.135-.2134 2.1792-.5694 3.0528-1.0736.8735-.5042 1.4906-1.107 1.8604-1.7622l2.2323.519.2063-.4312-2.2325-.519c.5309-1.3673.0468-2.9091-1.404-4.248l1.8314-.6298-.4854-.4114z"/><path fill="url(#a)" d="M18.8903 8.3412l-3.9159-.9101c.1065-.4263-.041-.8865-.4307-1.3054l3.2436-1.1155c1.117 1.0533 1.4983 2.256 1.103 3.331zm-1.6754 1.8086c-.6842.3949-1.4988.6771-2.3844.8504l-1.5788-2.263c.335-.0808.645-.1956.911-.3492.2663-.1537.4652-.3325.6053-.526l3.9205.9113c-.2997.511-.789.9814-1.4736 1.3765zm-8.904.3304l1.9324-1.8724c.7258.2249 1.5234.3099 2.2616.2486l1.5769 2.2602c-1.8626.2282-3.9462.0081-5.7708-.6364zm-1.7006-.7699C5.3622 8.99 4.5648 8.1205 4.2195 7.2365l3.9837-.0707c.1828.3651.5326.7196 1.0507 1.0186.0889.0514.1806.0997.275.1453l-1.9304 1.8698c-.342-.1484-.675-.3083-.9882-.4892zM5.551 3.783l3.097 1.739c-.4363.3337-.6291.7486-.5865 1.1756l-3.9814.0709c-.226-1.0934.2538-2.1709 1.4709-2.9855zm5.806-1.2143l-.1224 2.2978c-.7493-.0251-1.4773.089-2.059.3472L6.0763 3.473c1.4234-.7434 3.3374-1.0384 5.2808-.9044zm-.9085 4.9262c-.6897-.3981-.765-1.0024-.1675-1.3472.5974-.3448 1.6445-.3016 2.3343.0966.6902.3983.7651 1.0027.1676 1.3475-.5974.3448-1.6442.3015-2.3344-.0969zm6.005-3.466c.3133.181.5908.373.8478.5703l-3.2392 1.114a3.8087 3.8087 0 0 0-.252-.1585c-.5181-.299-1.1322-.501-1.7647-.6066l.123-2.2992c1.531.1996 3.0373.6599 4.2851 1.38zm4.1495-.5653l-1.8322.6304c-.3351-.2624-.708-.5154-1.1226-.7546-1.578-.9108-3.487-1.4925-5.4246-1.7331l.0704-1.3133-.8108-.0805-.0702 1.3139c-2.4835-.1857-4.942.1913-6.7423 1.1572l-1.68-.9435-.5212.3121 1.6757.9411c-1.575 1.0308-2.184 2.4125-1.8707 3.8073L0 6.8411l.1399.4678 2.2729-.0403c.4169 1.1184 1.4247 2.2205 3.0027 3.1313.4145.2393.853.4544 1.3073.648L5.628 12.1084l.7127.2801 1.0943-1.0601c2.3195.8373 4.9908 1.1167 7.3598.8103l.899 1.2885.747-.119-.899-1.2885c1.135-.2134 2.1792-.5695 3.0528-1.0736.8735-.5042 1.4906-1.107 1.8604-1.7622l2.2323.519.2063-.4312-2.2325-.519c.5309-1.3673.0468-2.9091-1.404-4.248l1.8314-.6298-.4854-.4114z" opacity=".2219" transform="translate(354.1766 216.9493)"/></g><g><path fill="url(#M)" d="M36.4356 42.2472L.0487 21.1325v45.8077l36.3869 21.1147z" opacity=".6" transform="translate(329 187)"/><path fill="url(#N)" d="M36.4007 42.1734l36.387-21.1146v46.0066L36.4007 88.18z" opacity=".4907" transform="translate(329 187)"/><path fill="url(#O)" d="M36.387 0L0 21.1146l36.387 21.1147 36.387-21.1147z" opacity=".6" transform="translate(329 187)"/></g><path fill="url(#P)" d="M36.4214 88.0563L.0341 66.9441v5.0407L36.4214 93.097z" transform="translate(329 187)"/><path fill="url(#Q)" d="M72.6765 88.0563L36.2892 66.9441v5.0407L72.6765 93.097z" transform="matrix(-1 0 0 1 437.9656 187)"/></g></g><g><path fill="#0000C7" d="M74.5 85.6569L1 128.4852l73.5 42.8286 73.5-42.8286z" filter="url(#aA)" opacity=".4332" transform="translate(686 125.1706)"/><path fill="url(#C)" d="M148.4905 86.1299l-74.2694-42.99v93.2658l74.2694 42.9899z" opacity=".883" transform="translate(686 125.1706)"/><path fill="url(#D)" d="M74.4911 43.051L.2211.061v93.2658l74.27 42.9899z" transform="translate(686 125.1706)"/><path fill="url(#E)" d="M74.25 0L0 43.0788l74.25 43.079 74.25-43.079z" transform="translate(686 125.1706)"/><path fill="navy" d="M52.3374 66.2609L0 96.4907l52.3374 30.2298 52.3375-30.2298z" filter="url(#aB)" opacity=".2495" transform="translate(708.5 69.5688)"/><g transform="translate(708.5 100.1894)"><path fill="url(#k)" d="M52.4074 70.0228L.07 39.793v12.4983l52.3374 30.2298z"/><path fill="url(#l)" d="M52.3571 69.9172l52.3375-30.2298v12.7831L52.3571 82.7002z"/><mask id="aE" fill="#fff"><use xlink:href="#aC"/></mask><use fill="url(#G)" xlink:href="#aC"/><path fill="navy" d="M52.3374 0L0 30.2298l52.3374 30.2298 52.3375-30.2298z" filter="url(#aD)" mask="url(#aE)" opacity=".3266"/></g><path fill="url(#k)" d="M52.4074 60.4852L.07 30.2554v12.4984l52.3374 30.2297z" transform="translate(708.5 69.5688)"/><path fill="url(#J)" d="M52.3571 60.3797l52.3375-30.2299v12.7831L52.3571 73.1627z" transform="translate(708.5 69.5688)"/><path fill="url(#K)" d="M52.3374 0L0 30.2298l52.3374 30.2298 52.3375-30.2298z" transform="translate(708.5 69.5688)"/><path fill="url(#a)" d="M52.3374-5.0198L0 25.2101l52.3374 30.2298 52.3375-30.2298z" opacity=".1794" transform="translate(708.5 69.5688)"/><g><path fill="url(#M)" d="M74.3686 86.0707L.0993 43.0536v93.3247l74.2693 43.017z" opacity=".6" transform="translate(686 32)"/><path fill="url(#N)" d="M74.2972 85.9205l74.2694-43.0172v93.7299l-74.2694 43.0171z" opacity=".4907" transform="translate(686 32)"/><path fill="url(#O)" d="M74.2693 0L0 43.0172l74.2693 43.0171 74.2693-43.0171z" opacity=".6" transform="translate(686 32)"/></g><path fill="url(#P)" d="M74.3396 179.3984l-74.27-43.0123v10.2694l74.27 43.0122z" transform="translate(686 32)"/><path fill="url(#Q)" d="M148.3396 179.3984l-74.27-43.0123v10.2694l74.27 43.0122z" transform="matrix(-1 0 0 1 908.4093 32)"/><g><path fill="#0000C7" d="M74.5 85.9706L1 128.9559l73.5 42.9854 73.5-42.9854z" filter="url(#aF)" opacity=".4332" transform="translate(760 168.512)"/><path fill="url(#C)" d="M148.4905 86.4454L74.2211 43.2979v93.6074l74.2694 43.1474z" opacity=".883" transform="translate(760 168.512)"/><path fill="url(#D)" d="M74.4911 43.2087L.2211.0612v93.6074l74.27 43.1474z" transform="translate(760 168.512)"/><path fill="url(#E)" d="M74.25 0L0 43.2366l74.25 43.2368 74.25-43.2368z" transform="translate(760 168.512)"/><path fill="navy" d="M52.3374 66.2609L0 96.4907l52.3374 30.2298 52.3375-30.2298z" filter="url(#aG)" opacity=".2495" transform="translate(782.5 112.7064)"/><path fill="url(#k)" d="M52.4074 60.4852L.07 30.2554v12.4984l52.3374 30.2297z" transform="translate(782.5 152.8645)"/><path fill="url(#l)" d="M52.3571 60.3797l52.3375-30.2299v12.7831L52.3571 73.1627z" transform="translate(782.5 152.8645)"/><path fill="url(#G)" d="M52.3374 0L0 30.2298l52.3374 30.2298 52.3375-30.2298z" transform="translate(782.5 152.8645)"/><path fill="navy" d="M52.3374 46.1818L0 76.4116l52.3374 30.2299 52.3375-30.2299z" filter="url(#aH)" opacity=".2495" transform="translate(782.5 112.7064)"/><path fill="url(#k)" d="M52.4074 60.4852L.07 30.2554v12.4984l52.3374 30.2297z" transform="translate(782.5 132.7855)"/><path fill="url(#l)" d="M52.3571 60.3797l52.3375-30.2299v12.7831L52.3571 73.1627z" transform="translate(782.5 132.7855)"/><path fill="url(#G)" d="M52.3374 0L0 30.2298l52.3374 30.2298 52.3375-30.2298z" transform="translate(782.5 132.7855)"/><path fill="navy" d="M52.3374 26.1028L0 56.3326l52.3374 30.2298 52.3375-30.2298z" filter="url(#aI)" opacity=".2495" transform="translate(782.5 112.7064)"/><g><path fill="url(#k)" d="M52.4074 60.4852L.07 30.2554v12.4984l52.3374 30.2297z" transform="translate(782.5 112.7064)"/><path fill="url(#J)" d="M52.3571 60.3797l52.3375-30.2299v12.7831L52.3571 73.1627z" transform="translate(782.5 112.7064)"/><path fill="url(#K)" d="M52.3374 0L0 30.2298l52.3374 30.2298 52.3375-30.2298z" transform="translate(782.5 112.7064)"/></g><path fill="url(#a)" d="M52.3374-5.0198L0 25.2101l52.3374 30.2298 52.3375-30.2298z" opacity=".1794" transform="translate(782.5 112.7064)"/><g><path fill="url(#M)" d="M74.3686 86.386L.0993 43.2113v93.6665l74.2693 43.1747z" opacity=".6" transform="translate(760 75)"/><path fill="url(#N)" d="M74.2972 86.2352l74.2694-43.1747v94.0732l-74.2694 43.1746z" opacity=".4907" transform="translate(760 75)"/><path fill="url(#O)" d="M74.2693 0L0 43.1747l74.2693 43.1748 74.2693-43.1748z" opacity=".6" transform="translate(760 75)"/></g><path fill="url(#P)" d="M74.3396 180.0555l-74.27-43.1698v10.307l74.27 43.1698z" transform="translate(760 75)"/><path fill="url(#Q)" d="M148.3396 180.0555l-74.27-43.1698v10.307l74.27 43.1698z" transform="matrix(-1 0 0 1 982.4093 75)"/></g><g><path fill="#0000C7" d="M74.5 85.9706L1 128.9559l73.5 42.9854 73.5-42.9854z" filter="url(#aJ)" opacity=".4332" transform="translate(834 211.512)"/><path fill="url(#C)" d="M148.4905 86.4454L74.2211 43.2979v93.6074l74.2694 43.1474z" opacity=".883" transform="translate(834 211.512)"/><path fill="url(#D)" d="M74.4911 43.2087L.2211.0612v93.6074l74.27 43.1474z" transform="translate(834 211.512)"/><path fill="url(#E)" d="M74.25 0L0 43.2366l74.25 43.2368 74.25-43.2368z" transform="translate(834 211.512)"/><path fill="#0B024C" d="M52.3374 46.216L0 76.4681l52.3374 30.2522 52.3375-30.2522z" filter="url(#aK)" opacity=".2495" transform="translate(856.5 165.7615)"/><path fill="url(#k)" d="M52.4074 65.5534L.07 35.3013v32.6014l52.3374 30.2522z" transform="translate(856.5 160.738)"/><path fill="url(#J)" d="M52.3571 65.4478l52.3375-30.2522V68.082L52.3571 98.3342z" transform="translate(856.5 160.738)"/><path fill="url(#K)" d="M52.3374 5.0235L0 35.2756l52.3374 30.2522 52.3375-30.2522z" transform="translate(856.5 160.738)"/><path fill="url(#a)" d="M52.3374 0L0 30.2522l52.3374 30.2521 52.3375-30.2521z" opacity=".1794" transform="translate(856.5 160.738)"/><g opacity=".8676"><path fill="#FFF" d="M924.5306 199.0002l-8.0622-1.8727c.2192-.8771-.0845-1.8242-.8867-2.6861l6.678-2.2954c2.2997 2.1673 3.0848 4.642 2.271 6.8542zm-3.4494 3.7215c-1.4086.8126-3.0857 1.3934-4.909 1.7498l-3.2506-4.6563c.69-.1665 1.328-.4027 1.8755-.7186.5483-.3163.9578-.6843 1.2463-1.0823l8.0716 1.8751c-.617 1.0516-1.6245 2.0194-3.0338 2.8323zm-18.3316.6798l3.9784-3.8527c1.4941.4627 3.1363.6376 4.6562.5116l3.2464 4.6508c-3.8347.4694-8.1245.0167-11.881-1.3097zm-3.5015-1.584c-2.5696-1.4824-4.2112-3.2713-4.9221-5.0903l8.2016-.1457c.3765.7514 1.0966 1.4808 2.1633 2.0962.183.1055.3717.205.5662.2989l-3.9744 3.8474c-.704-.3053-1.3895-.6344-2.0346-1.0066zm-2.1806-12.197l6.3761 3.5787c-.8982.6864-1.2952 1.5402-1.2075 2.4188l-8.197.1459c-.4651-2.25.5227-4.467 3.0284-6.1433zm11.9535-2.4986l-.252 4.7283c-1.5427-.0518-3.0415.183-4.239.7143l-6.3813-3.5815c2.9306-1.5297 6.8712-2.1367 10.8723-1.8611zm-1.8703 10.1368c-1.4202-.8193-1.575-2.0627-.345-2.7722 1.2299-.7095 3.3858-.6205 4.806.1987 1.4209.8196 1.5751 2.0634.345 2.7729-1.2299.7095-3.3852.6202-4.806-.1994zm12.3631-7.132c.6451.3722 1.2163.7673 1.7456 1.1735l-6.6691 2.2924a7.8421 7.8421 0 0 0-.519-.3264c-1.0665-.6153-2.3308-1.0307-3.633-1.2482l.2534-4.731c3.1519.4108 6.253 1.3578 8.8221 2.8398zm8.543-1.1633l-3.772 1.297c-.69-.5399-1.4577-1.0604-2.3113-1.5526-3.2487-1.8741-7.179-3.0711-11.1682-3.5662l.1449-2.7022-1.6694-.1658-.1446 2.7035c-5.113-.382-10.1745.3938-13.8811 2.3814l-3.4587-1.9416-1.073.6423 3.4498 1.9365c-3.2425 2.121-4.4963 4.9641-3.8514 7.8342l-4.683.0835.288.9627 4.6795-.083c.8582 2.3013 2.9333 4.5692 6.182 6.4433.8533.4923 1.7562.935 2.6916 1.3333l-2.254 2.1822 1.4672.5765 2.253-2.1816c4.7755 1.7231 10.2751 2.298 15.1525 1.6676l1.851 2.6513 1.5378-.2449-1.8508-2.6513c2.3368-.4392 4.4866-1.1718 6.285-2.2093 1.7985-1.0374 3.069-2.2779 3.8303-3.626l4.596 1.0678.4247-.8872-4.5964-1.0677c1.093-2.8137.0965-5.9863-2.8904-8.7411l3.7705-1.2961-.9995-.8465z"/><path fill="url(#a)" d="M38.8919 17.1636l-8.0622-1.8727c.2191-.8771-.0846-1.8242-.8868-2.6861l6.678-2.2954c2.2997 2.1674 3.0848 4.642 2.271 6.8542zm-3.4494 3.7215c-1.4087.8126-3.0858 1.3934-4.909 1.7498l-3.2507-4.6563c.69-.1665 1.328-.4027 1.8756-.7186.5483-.3163.9578-.6843 1.2463-1.0823l8.0715 1.8751c-.617 1.0516-1.6245 2.0194-3.0337 2.8323zm-18.3317.6799l3.9784-3.8528c1.4942.4628 3.1363.6376 4.6562.5116l3.2465 4.6508c-3.8347.4695-8.1246.0167-11.881-1.3096zm-3.5014-1.5842c-2.5696-1.4823-4.2112-3.2712-4.9222-5.0902l8.2017-.1457c.3765.7514 1.0965 1.4808 2.1632 2.0962.183.1056.3718.205.5662.2989l-3.9743 3.8474c-.7041-.3052-1.3896-.6344-2.0346-1.0066zM11.4287 7.784l6.3762 3.5786c-.8983.6864-1.2953 1.5402-1.2076 2.4188l-8.197.1459c-.465-2.25.5227-4.467 3.0284-6.1433zm11.9536-2.4987l-.252 4.7283c-1.5427-.0517-3.0415.183-4.239.7143L12.51 7.1464c2.9305-1.5296 6.8712-2.1367 10.8723-1.8611zM21.5119 15.422c-1.4201-.8193-1.5749-2.0627-.345-2.7722 1.23-.7095 3.3858-.6205 4.806.1987 1.421.8197 1.5752 2.0634.345 2.7729-1.2298.7095-3.3852.6202-4.806-.1994zM33.8751 8.29c.645.3722 1.2163.7673 1.7455 1.1735l-6.669 2.2924a7.8421 7.8421 0 0 0-.519-.3264c-1.0665-.6153-2.3309-1.0307-3.633-1.2482l.2533-4.731c3.1519.4108 6.2531 1.3578 8.8222 2.8398zm8.543-1.1633l-3.7721 1.297c-.69-.5398-1.4577-1.0604-2.3113-1.5526-3.2486-1.8741-7.1789-3.071-11.1682-3.5662l.145-2.7022L23.642.437l-.1445 2.7036c-5.113-.3821-10.1745.3938-13.8812 2.3813L6.1576 3.5803l-1.073.6423 3.4498 1.9365c-3.2425 2.121-4.4962 4.9642-3.8514 7.8342L0 14.077l.288.9626 4.6795-.083c.8583 2.3014 2.9333 4.5692 6.182 6.4433.8534.4923 1.7563.935 2.6917 1.3333l-2.2541 2.1822 1.4673.5765 2.253-2.1815c4.7754 1.723 10.275 2.2979 15.1525 1.6675l1.851 2.6513 1.5377-.2449-1.8507-2.6513c2.3367-.4392 4.4866-1.1718 6.285-2.2093 1.7985-1.0374 3.069-2.2779 3.8302-3.626l4.596 1.0678.4247-.8872-4.5963-1.0677c1.093-2.8137.0965-5.9863-2.8905-8.7411l3.7705-1.2961-.9994-.8465z" opacity=".2219" transform="translate(885.6388 179.3248)"/></g><g><path fill="url(#M)" d="M74.3686 86.386L.0993 43.2113v93.6665l74.2693 43.1747z" opacity=".6" transform="translate(834 118)"/><path fill="url(#N)" d="M74.2972 86.2352l74.2694-43.1747v94.0732l-74.2694 43.1746z" opacity=".4907" transform="translate(834 118)"/><path fill="url(#O)" d="M74.2693 0L0 43.1747l74.2693 43.1748 74.2693-43.1748z" opacity=".6" transform="translate(834 118)"/></g><path fill="url(#P)" d="M74.3396 180.0555l-74.27-43.1698v10.307l74.27 43.1698z" transform="translate(834 118)"/><path fill="url(#Q)" d="M148.3396 180.0555l-74.27-43.1698v10.307l74.27 43.1698z" transform="matrix(-1 0 0 1 1056.4093 118)"/></g></g><g transform="translate(464 -15)"><path fill="url(#aL)" d="M184 358.1439l24.3528 14.0777-104.1764 60.2216L0 372.2216l24-13.8738V0h160v358.1439z" filter="url(#aM)"/><path fill="url(#aL)" d="M184 358.1439l24.3528 14.0777-104.1764 60.2216L0 372.2216l24-13.8738V0h160v358.1439z"/><rect width="47" height="405" x="81" y="100" fill="url(#aN)" rx="23.5"/><rect width="5" height="405" x="102" y="122" fill="url(#aO)" rx="2.5" transform="matrix(-1 0 0 1 209 0)"/><rect width="47" height="47" x="81" y="100" fill="#FFF" fill-opacity=".0795" opacity=".8659" rx="23.5"/><use fill="#000" filter="url(#aP)" xlink:href="#aQ"/><use fill="#FFF" fill-opacity=".7" xlink:href="#aQ"/><use fill="#000" filter="url(#aR)" xlink:href="#aS"/><use fill="#FFF" xlink:href="#aS"/><rect width="2" height="86" x="51" y="284" fill="url(#aT)" rx="1"/><rect width="2" height="86" x="141" y="204" fill="url(#aT)" rx="1"/><rect width="2" height="86" x="120" y="304" fill="url(#aT)" rx="1"/></g><g><g transform="translate(325 199)"><use fill="#000" filter="url(#aU)" xlink:href="#aV"/><use fill="#FFF" xlink:href="#aV"/></g><g transform="translate(325 199)"><use fill="#000" filter="url(#aW)" xlink:href="#aX"/><use fill="#FFF" xlink:href="#aX"/></g><g transform="translate(325 199)"><use fill="#000" filter="url(#aY)" xlink:href="#aZ"/><use fill="#FFF" xlink:href="#aZ"/></g><g transform="translate(325 199)"><use fill="#000" filter="url(#ba)" xlink:href="#bb"/><use fill="#FFF" xlink:href="#bb"/></g><g transform="translate(325 199)"><use fill="#000" filter="url(#bc)" xlink:href="#bd"/><use fill="#FFF" xlink:href="#bd"/></g><g transform="translate(325 199)"><use fill="#000" filter="url(#be)" xlink:href="#bf"/><use fill="#FFF" xlink:href="#bf"/></g><g transform="translate(325 199)"><use fill="#000" filter="url(#bg)" xlink:href="#bh"/><use fill="#FFF" xlink:href="#bh"/></g></g><path stroke="url(#bi)" d="M710 345.3144l194.0339-111.9848" transform="rotate(180 807.017 281.822)"/><path stroke="url(#bj)" d="M829.9049 324.4932l-103.522 59.7498-.4305.2833-.3577.311-.2774.3331-.1993.3656-.1026.3647-.0154.3731.0679.3735.1469.375.2079.3513.2666.3391.3156.3206.3795.3171.4145.2901 97.6619 56.3952.4971.2644.5259.2366.5509.2082.571.1791.5876.1493.6391.1258.6457.0909.6485.0557.6449.0201.6743-.0177.6571-.0578.6327-.0975.6019-.1367.5638-.1748.5481-.2251L937 385.893" transform="rotate(180 831 377.9295)"/><g transform="translate(0 -15)"><use fill="#000" filter="url(#bk)" xlink:href="#bl"/><use fill="#FFF" xlink:href="#bl"/></g><g transform="translate(0 -15)"><use fill="#000" filter="url(#bm)" xlink:href="#bn"/><use fill="#FFF" xlink:href="#bn"/></g><g><path fill="url(#b)" d="M20.7532 23.9673L.0277 11.9888v163.5629l20.7255 11.9786z" transform="translate(983 599)"/><path fill="url(#c)" d="M20.7332 23.9259l20.7255-11.9786v163.5793l-20.7255 11.9785z" transform="translate(983 599)"/><path fill="#3776F6" d="M1003.7254 599L983 610.9791l20.7254 11.9786 20.7255-11.9786z"/></g><g><path fill="url(#b)" d="M16.8002 19.1228L.0224 9.5655v130.5023l16.7778 9.5574z" transform="translate(529 647)"/><path fill="url(#c)" d="M16.7841 19.0898l16.7777-9.5574v130.5154l-16.7777 9.5574z" transform="translate(529 647)"/><path fill="#3776F6" d="M545.7777 647L529 656.5578l16.7777 9.5574 16.7778-9.5574z"/></g></g></svg>
